<?xml version="1.0" encoding="UTF-8"?>
<svg id="Layer_1" data-name="Layer 1" xmlns="http://www.w3.org/2000/svg" viewBox="0 0 567.32 457.01">
  <defs>
    <style>
      .cls-1 {
        fill: #224e84;
      }

      .cls-2 {
        fill: #87bfd7;
      }

      .cls-3 {
        fill: #2b343d;
      }

      .cls-4 {
        fill: #6b727b;
      }

      .cls-5 {
        fill: #323940;
      }

      .cls-6 {
        fill: #77595e;
      }

      .cls-7 {
        fill: #d38d74;
      }

      .cls-8 {
        fill: #0e0b0a;
      }

      .cls-9 {
        fill: #32393f;
      }

      .cls-10 {
        fill: #be7c3b;
      }

      .cls-11 {
        fill: #fcfdfe;
      }

      .cls-12 {
        fill: #9bbbca;
      }

      .cls-13 {
        fill: #3c4e73;
      }

      .cls-14 {
        fill: #44a3d3;
      }

      .cls-15 {
        fill: #c49c6c;
      }

      .cls-16 {
        fill: #323b42;
      }

      .cls-17 {
        fill: #f0ba93;
      }

      .cls-18 {
        fill: #f9a037;
      }

      .cls-19 {
        fill: #030303;
      }

      .cls-20 {
        fill: #c68744;
      }

      .cls-21 {
        fill: #d7957a;
      }

      .cls-22 {
        fill: #43a1d2;
      }

      .cls-23 {
        fill: #74b3d3;
      }

      .cls-24 {
        fill: #854e2b;
      }

      .cls-25 {
        fill: #a4725d;
      }

      .cls-26 {
        fill: #e1c5ad;
      }

      .cls-27 {
        fill: #e6c4a9;
      }

      .cls-28 {
        fill: #429dca;
      }

      .cls-29 {
        fill: #489ed0;
      }

      .cls-30 {
        fill: #8f472d;
      }

      .cls-31 {
        fill: #1e4c82;
      }

      .cls-32 {
        fill: #884d27;
      }

      .cls-33 {
        fill: #245f9d;
      }

      .cls-34 {
        fill: #c17f3d;
      }

      .cls-35 {
        fill: #f6c4a0;
      }

      .cls-36 {
        fill: #f58f27;
      }

      .cls-37 {
        fill: #c38441;
      }

      .cls-38 {
        fill: #d2652c;
      }

      .cls-39 {
        fill: #192f4e;
      }

      .cls-40 {
        fill: #1d252f;
      }

      .cls-41 {
        fill: #f7d6ab;
      }

      .cls-42 {
        fill: #f4dabd;
      }

      .cls-43 {
        fill: #cdc2ab;
      }

      .cls-44 {
        fill: #625364;
      }

      .cls-45 {
        fill: #f1d5b8;
      }

      .cls-46 {
        fill: #803d23;
      }

      .cls-47 {
        fill: #af7f66;
      }

      .cls-48 {
        fill: #1f272e;
      }

      .cls-49 {
        fill: #f6c49f;
      }

      .cls-50 {
        fill: #f29238;
      }

      .cls-51 {
        fill: #214e84;
      }

      .cls-52 {
        fill: #1a2f4f;
      }

      .cls-53 {
        fill: #d09075;
      }

      .cls-54 {
        fill: #232c35;
      }

      .cls-55 {
        fill: #a8775f;
      }

      .cls-56 {
        fill: #141a26;
      }

      .cls-57 {
        fill: #1a2f4d;
      }

      .cls-58 {
        fill: #f6c5a0;
      }

      .cls-59 {
        fill: #d88d6f;
      }

      .cls-60 {
        fill: #8d472e;
      }

      .cls-61 {
        fill: #4592c4;
      }

      .cls-62 {
        fill: #f2c68c;
      }

      .cls-63 {
        fill: #8bc4dd;
      }

      .cls-64 {
        fill: #80bcd9;
      }

      .cls-65 {
        fill: #1f2731;
      }

      .cls-66 {
        fill: #1a304f;
      }

      .cls-67 {
        fill: #182e4d;
      }

      .cls-68 {
        fill: #aa7d69;
      }

      .cls-69 {
        fill: #db9376;
      }

      .cls-70 {
        fill: #255c99;
      }

      .cls-71 {
        fill: #32609c;
      }

      .cls-72 {
        fill: #bf7c3a;
      }

      .cls-73 {
        fill: #d68c71;
      }

      .cls-74 {
        fill: #fdfefd;
      }

      .cls-75 {
        fill: #438dc0;
      }

      .cls-76 {
        fill: #2c333a;
      }

      .cls-77 {
        fill: #fdfeff;
      }

      .cls-78 {
        fill: #904e29;
      }

      .cls-79 {
        fill: #fcd499;
      }

      .cls-80 {
        fill: #438ec0;
      }

      .cls-81 {
        fill: #c58641;
      }

      .cls-82 {
        fill: #fcfefe;
      }

      .cls-83 {
        fill: #419ccc;
      }

      .cls-84 {
        fill: #333b42;
      }

      .cls-85 {
        fill: #f3dbbd;
      }

      .cls-86 {
        fill: #4291c4;
      }

      .cls-87 {
        fill: #1e4e85;
      }

      .cls-88 {
        fill: #f1dbc3;
      }

      .cls-89 {
        fill: #f4ddbf;
      }

      .cls-90 {
        fill: #f3dabd;
      }

      .cls-91 {
        fill: #010102;
      }

      .cls-92 {
        fill: #202830;
      }

      .cls-93 {
        fill: #14100f;
      }

      .cls-94 {
        fill: #f58e27;
      }

      .cls-95 {
        fill: #fff;
      }

      .cls-96 {
        fill: #e9be9d;
      }

      .cls-97 {
        fill: #583b2f;
      }

      .cls-98 {
        fill: #d4672c;
      }

      .cls-99 {
        fill: #1f4f86;
      }

      .cls-100 {
        fill: #f1d3b4;
      }

      .cls-101 {
        fill: #020305;
      }

      .cls-102 {
        fill: #2d6ca5;
      }

      .cls-103 {
        fill: #4390c3;
      }

      .cls-104 {
        fill: #cc866c;
      }

      .cls-105 {
        fill: #c5bdad;
      }

      .cls-106 {
        fill: #8c4f28;
      }

      .cls-107 {
        fill: #439ccb;
      }

      .cls-108 {
        fill: #f0b992;
      }

      .cls-109 {
        fill: #333c43;
      }

      .cls-110 {
        fill: #844b29;
      }

      .cls-111 {
        fill: #98582d;
      }

      .cls-112 {
        fill: #040303;
      }

      .cls-113 {
        fill: #e47530;
      }

      .cls-114 {
        fill: #ba7b3c;
      }

      .cls-115 {
        fill: #435277;
      }

      .cls-116 {
        fill: #d79478;
      }

      .cls-117 {
        fill: #f6d5a8;
      }

      .cls-118 {
        fill: #904a2f;
      }

      .cls-119 {
        fill: #3b719e;
      }

      .cls-120 {
        fill: #42a0d1;
      }

      .cls-121 {
        fill: #8a594f;
      }

      .cls-122 {
        fill: #30373d;
      }

      .cls-123 {
        fill: #202730;
      }

      .cls-124 {
        fill: #a05f48;
      }

      .cls-125 {
        fill: #f7f7f7;
      }

      .cls-126 {
        fill: #9b6551;
      }

      .cls-127 {
        fill: #dd7d34;
      }

      .cls-128 {
        fill: #426a8d;
      }

      .cls-129 {
        fill: #e0712b;
      }

      .cls-130 {
        fill: #965025;
      }

      .cls-131 {
        fill: #20272f;
      }

      .cls-132 {
        fill: #a4705b;
      }

      .cls-133 {
        fill: #cb6f2e;
      }

      .cls-134 {
        fill: #685768;
      }

      .cls-135 {
        fill: #c48441;
      }

      .cls-136 {
        fill: #131925;
      }

      .cls-137 {
        fill: #29313a;
      }

      .cls-138 {
        fill: #4392c6;
      }

      .cls-139 {
        fill: #1c1f1d;
      }

      .cls-140 {
        fill: #222a31;
      }

      .cls-141 {
        fill: #131926;
      }

      .cls-142 {
        fill: #f7d6a8;
      }

      .cls-143 {
        fill: #ce8d74;
      }

      .cls-144 {
        fill: #b86b33;
      }

      .cls-145 {
        fill: #214e83;
      }

      .cls-146 {
        fill: #343c44;
      }

      .cls-147 {
        fill: #d3874c;
      }

      .cls-148 {
        fill: #242c34;
      }

      .cls-149 {
        fill: #d2a87c;
      }

      .cls-150 {
        fill: #efd3b7;
      }

      .cls-151 {
        fill: #ed8830;
      }

      .cls-152 {
        fill: #ec8730;
      }

      .cls-153 {
        fill: #46a1d2;
      }

      .cls-154 {
        fill: #8f4a30;
      }

      .cls-155 {
        fill: #449eca;
      }

      .cls-156 {
        fill: #f68e27;
      }

      .cls-157 {
        fill: #b96a41;
      }

      .cls-158 {
        fill: #333a43;
      }

      .cls-159 {
        fill: #d69074;
      }

      .cls-160 {
        fill: #eed3b8;
      }

      .cls-161 {
        fill: #b55f39;
      }

      .cls-162 {
        fill: #feffff;
      }

      .cls-163 {
        fill: #c8853f;
      }

      .cls-164 {
        fill: #fbe0a8;
      }

      .cls-165 {
        fill: #f4dcbe;
      }

      .cls-166 {
        fill: #1b1715;
      }

      .cls-167 {
        fill: #235691;
      }

      .cls-168 {
        fill: #80bad3;
      }

      .cls-169 {
        fill: #2362a1;
      }

      .cls-170 {
        fill: #f6c6a2;
      }

      .cls-171 {
        fill: #3f9bcc;
      }

      .cls-172 {
        fill: #1c242e;
      }

      .cls-173 {
        fill: #429ed0;
      }

      .cls-174 {
        fill: #e1742e;
      }

      .cls-175 {
        fill: #222932;
      }

      .cls-176 {
        fill: #2469aa;
      }

      .cls-177 {
        fill: #d59276;
      }
    </style>
  </defs>
  <g id="Generative_Object" data-name="Generative Object">
    <g>
      <path class="cls-91" d="M492.43,434.63c-.04,1.7-1.04,3.03-2.09,4l-6.89,6.44c-.68.64-1.74,1.05-3.01,1.05H93.26c-1.39,0-2.55-.44-3.36-1.23-2.71-2.65-5.93-4.95-8.05-8.15-1.51-2.28-.42-5.46-.67-8.23l-26.83-29.26c-1.38-1.51-2.7-3.39-1.07-5.25l11.34-12.87-9.87-.16c-1.3-.02-2.51-.49-3.44-1.42l-19.66-19.65c-1.32-1.32-1.89-2.5-1.89-4.45v-50.05c0-2.53.7-3.76,2.36-5.45l17.97-18.38c.87-1.21,2.08-1.86,3.59-1.87l18.02-.04c-10.01-35.58-9.74-72.66.36-108.13,5.67-19.91,13.99-38.7,25.09-56.17,26.69-42.02,66.65-74.11,113.69-90.64,68.24-23.97,144.83-13.12,203.36,29.55l30.43.08c5.9.02,10.34,4.61,10.64,10.45v27.94s12.61,16.71,12.61,16.71c5.72-.06,10.46,4.2,10.57,9.89l.14,7.75c15.03,27.63,24.01,58,25.67,89.54,1.13,21.47-1.6,42.34-7.16,63.03l17.5.04c1.4,0,2.57.5,3.64,1.32l17.32,18.1c1.02,1.06,3.01,2.67,3.15,4.32l.14,52.56c0,1.4-.31,2.5-1.19,3.41l-16.21,16.76c-1.72,1.78-3.09,4.5-5.66,4.63l-7.36.38,10.98,12.39c1.32,1.49,1.52,3.29.1,4.85l-26.95,29.67-.15,6.52Z"/>
      <g>
        <g>
          <g>
            <polygon class="cls-4" points="489.03 434.69 480.92 442.61 92.81 442.6 84.82 435.21 84.78 429.02 100.93 413.51 100.94 391.47 88.05 377.42 54.07 377.4 33.3 356.61 33.33 303.85 53.38 283.14 515.37 283.15 527.54 295.84 535.43 304.35 535.38 356.93 515.59 377.37 485.61 377.4 472.72 391.45 472.79 413.48 488.91 429.04 489.03 434.69"/>
            <path class="cls-141" d="M478.41,435.69l-382.22.02c-1.98-.89-3.3-2.16-4.71-3.93l16.06-15.53-.04-27.15-8.15-9.29-8.87-9.42-32.65-.04-17.79-18.15-.02-45.27,17.09-17.03h454.61s16.87,17.34,16.87,17.34v45.35s-16.58,17.73-16.58,17.73l-29.08.13-17.01,18.7.03,27.27,16.31,15.33-3.86,3.94Z"/>
            <g>
              <path class="cls-156" d="M361.69,405.62l-.04-12.69,31.13-.09.05,27.17c-9.94,6.94-21.61,10.08-33.83,8.9-17.14-1.62-31.85-12.66-32.62-30.5-.91-20.88,16.96-33.1,37.09-33.13,10.11-.16,19.82,2.59,28.22,8.72l-9.54,12.3c-6.94-5.69-15.81-7.44-24.38-5.45-9.01,2.53-14.17,11.14-12.26,20.24,1.38,6.55,5.97,11.48,12.55,13.11,5.72,1.42,11.5.76,17.19-1.13l.04-7.36-13.58-.09Z"/>
              <path class="cls-95" d="M103.92,336.25l-12.14-.13v-12.92s27.58-.03,27.58-.03l.02,28.43c-12.92,9.38-29.55,11.41-44.28,5.71-12.29-4.99-19.59-16.63-19.33-29.83.29-14.77,9.44-27.24,23.59-31.49,7.2-2.16,14.57-2.45,21.96-.88,6.33,1.48,12,4.44,16.54,9.09l-9.95,11.67c-4.44-4.47-10.21-6.34-16.3-6.14-10.16-.08-17.63,7.7-17.76,17.74-.12,9.39,6.14,16.9,15.52,18.03,4.97.6,9.87-.27,14.51-2.26l.04-6.99Z"/>
              <path class="cls-36" d="M422.54,404.94l-.1,11.17h31.1c1.85,0,3.2-.9,5.02-1.67l-.06,14h-56.71s1.69-5.44,1.69-5.44v-42.78s-1.36-13.32-1.36-13.32l56.15.04.03,15.2c-1.82-.76-3.62-1.22-5.75-1.22l-30.09.05-.1,10.85,29.86.03.13,13.31-29.81-.22Z"/>
              <polygon class="cls-95" points="347.57 332.76 321.12 332.79 321.13 343.88 353.2 343.9 353.18 357.59 303.66 357.59 303.67 295.12 351.13 295.07 351.13 309.13 321.12 309.14 321.18 319.48 347.5 319.44 347.57 332.76"/>
              <polygon class="cls-95" points="171.2 332.74 144.74 332.82 144.73 343.9 176.1 343.91 176.12 357.59 127.52 357.57 127.52 295.09 174.97 295.08 174.98 309.14 144.75 309.15 144.74 319.46 171.16 319.45 171.2 332.74"/>
              <path class="cls-156" d="M166.16,407.73l-5.13-.53-23.15.02.08,16.27c0,1.8,1.15,3.21,1.67,4.94h-23.06c.75-2.07,1.85-3.71,1.84-5.92l-.08-42.78-1.46-12.82h55.15s.13,15.33.13,15.33c-2.06-.96-3.72-1.32-5.71-1.18l-28.55.05.03,11.83h28.18s.06,14.79.06,14.79Z"/>
              <polygon class="cls-95" points="390.57 357.48 373.39 357.56 373.4 309.47 356.28 309.42 356.26 295.09 406.58 295.09 406.56 309.45 390.56 309.44 390.57 357.48"/>
              <polygon class="cls-95" points="444.02 357.5 426.98 357.56 426.99 309.44 411.19 309.4 411.19 295.08 459.12 295.09 459.17 309.41 444.04 309.43 444.02 357.5"/>
              <g>
                <path class="cls-156" d="M287.41,408.97l-11.49-.23.11,14.61c.01,1.83,1.01,3.38,1.72,5.08h-23.11c.58-1.69,1.95-3.1,1.94-4.96l-.07-44.25-1.46-12.31,39.42.11c5.86.02,11.24,1.52,16.04,4.52,6.11,3.82,9.13,10.38,8.64,17.52-.55,8.03-5.23,14.48-13,17.18l16.41,22.18-21.74.06-13.42-19.5Z"/>
                <path class="cls-56" d="M292.07,395.27l-16.16.19.04-14.71,15.82.12c4.33.03,7.41,3,7.56,6.99s-2.62,7.36-7.26,7.41Z"/>
              </g>
              <g>
                <path class="cls-94" d="M226.39,427.6c-8.87,2.66-17.87,2.49-26.48-.06-12.58-3.72-21.48-14.61-22.66-27.09-1.26-13.38,5.48-25.82,17.63-31.7,11.62-5.62,25.54-5.71,36.95.07,10.63,5.39,16.76,15.41,17.17,27.11.51,14.65-8.29,27.37-22.61,31.66Z"/>
                <path class="cls-141" d="M197.38,416.8c-.17-1.89.23-4.45,1.72-5.94l3.89-1.94c1.98-.99,2.91-3.1,3.11-5.1s-.42-4.1-2.12-5.51c-1.85-1.54-4.7-1.17-6.82-1.41-4.65-6.34-11.65-6.66-12.25-7.93-.38-.8-.52-1.93-.17-3.03l12.37-.08.07-3.2h40.14s.01,7.51.01,7.51c-4.01.85-7.75,1.99-10.9,4.67-3.99,3.39-4.76,9.32-1.24,13.25l4.76,2.7c1.65.94,1.33,3.83,1.42,5.95l-33.99.06Z"/>
              </g>
              <g>
                <circle class="cls-95" cx="490.19" cy="326.99" r="32.68"/>
                <path class="cls-141" d="M501.24,339.97c-3.49,3.94-8.43,5.13-13.44,4.41-4.31-.63-8.64-3.33-10.9-7.74-2.77-5.41-2.96-11.88-.71-17.49,2.61-6.52,8.65-10.03,15.47-9.49,6.39.51,11.62,5.09,13.31,11.76,1.62,6.38.87,13.34-3.73,18.55Z"/>
              </g>
              <g>
                <path class="cls-95" d="M298.29,314.72c1.04,14.73-10.45,23.62-24.98,23.7l-12.52.07-.13,19.06-17.21.07-.03-62.55,31.36.06c4.14,0,8.01.83,11.67,2.43,7.19,2.96,11.3,9.49,11.84,17.15Z"/>
                <path class="cls-56" d="M273.56,324.62l-12.84.2.12-15.69,11.96.03c4.6.01,7.95,2.96,8.13,7.23.17,4.15-2.56,8.15-7.36,8.23Z"/>
              </g>
              <g>
                <path class="cls-95" d="M215.01,338.4l-14.84.13-.03,19.11-17.22-.06-.02-62.51,33.03.17c6.43.03,12.17,2.53,16.67,7.01,7.36,8.95,6.55,22.4-1.95,30.28-4.42,3.69-9.68,5.27-15.64,5.86Z"/>
                <path class="cls-136" d="M212.56,324.68l-12.39.14-.02-15.64,11.59-.05c4.74-.02,8.2,2.81,8.41,7.28s-2.63,8.22-7.58,8.27Z"/>
              </g>
            </g>
          </g>
          <g>
            <path class="cls-141" d="M93.11,388.69l-.45.99-23.57.1c-.74.08-.81.69-.27,1.14l25.34-.2,2.49.96c.31.26.66.78.68,1.38l.15,5.76-.45.98-28.14-.1c-.74.08-1.03.72-.4,1.17l28.32.07.59.99.07,6.85-.71.76-21.75-.11c-1.08.33-.64,1.11.43,1.23l21.48.14.57.99-7.33,7.36-6.79,6.43-27.26-29.58,13.47-15.14,17-.03,5.39,5.88c.59.64,1,1.24,1.13,1.99Z"/>
            <path class="cls-103" d="M93.11,388.69l3.54,2.98-27.62.3c-.96,0-1.58-1.1-1.55-1.67.03-.77.65-1.5,1.65-1.5l23.98-.11Z"/>
            <path class="cls-138" d="M97.49,398.81l-.08,3.11-28.88-.08c-.98,0-1.41-1.13-1.35-1.68.08-.71.73-1.45,1.77-1.44l28.54.1Z"/>
            <path class="cls-75" d="M97.48,408.76l.02,3.01-22.12-.15c-.99,0-1.67-.52-1.88-1.26-.22-.78.32-1.92,1.44-1.93l21.07-.03c.62,0,1.12.18,1.47.36Z"/>
          </g>
          <g>
            <path class="cls-141" d="M476.25,411.72l.03-.66c7.09-.42,14.31-.57,21.66-.43,1.05-.15,1.13-1.07.16-1.21l-21.05.07-.82-.72v-6.84s.46-.99.46-.99l27.98-.07c.17-.44.13-.78-.13-1.03-9.21-.16-18.45-.16-27.72-.01l-.59-.98-.02-5.35c0-.96.55-1.16,1.02-1.58.64-.46,1.3-.79,1.97-.98l24.64.09c.8-.08.89-.95.19-1.23l-22.78-.04-.58-.99c.05-1.39,1.18-2.08,2.07-3.05l4.47-4.88,16.04-.04,13.65,15.3-26.67,29.31-6.06-5.91-7.91-7.78Z"/>
            <path class="cls-61" d="M477.22,391.9c.94-.85,2-3.14,3.44-3.13l23.24.04c1.15,0,1.7,1.03,1.51,1.95-.13.63-.62,1.24-1.65,1.24l-26.55-.1Z"/>
            <path class="cls-86" d="M476.25,401.92l-.02-3.09,27.56-.16c.96,0,1.6.4,1.85,1.04.22.54.09,2.08-.92,2.08l-28.47.13Z"/>
            <path class="cls-80" d="M476.25,411.72v-2.95c.34-.18.84-.36,1.46-.35l20.49.03c.99,0,1.54.85,1.53,1.53-.02.96-.71,1.64-1.87,1.64l-21.61.11Z"/>
          </g>
        </g>
        <g>
          <path class="cls-99" d="M394.86,98.96c-.81-2.55-.2-5.35-.45-8.35-4.24-.34-5.79,4.61-8.55,5-1.19.17-1.77-1.13-2.61-1.59-1.47-.8-2.39-.92-2.51-2.23-.16-1.67.23-2.56,1.85-3.03l-.61-1.35c-.18-.41,1.22-.75,1.49-1.63.06-.19-.09-.45-.28-.63-1.09-.88-1.23-2.82.15-3.47.02-.76.32-1.27-.23-1.76-2.81-2.54-5.34,2.94-10.04.15-.5.66-.95,1.03-.9,1.39.17,1.32,2.47-.11,2.79.83.11.33.2,1.3-.16,1.36-1.45-.15-2.55-.05-3.59,1.51-.54-.94-.87-1.8-.88-2.9l-.18-6.31c-1.25-1.05.68-2.88,1.91-2.01,4.96-.4,9.96-.56,15.01-.45,1.2-.41,1.48.27,1.44,1.34.55.34,1.31.45,1.8-.03-.5-1.3.25-1.44,1.01-.35.7-.77.65-1.51.32-2.5-.66.14-1.41-.07-2.25-.66l-2.18,1.29c-5.15-.09-10.28-.02-15.39.21-1.16,1.64-2.31,2.32-3.45,2.05-.32.09-.52.4-.52.95l-.03,8.64c-2.37-1.48-1.17-4.5-1.46-6.12-1.86-.79-3.46-1.52-3.66-3.8-2.3-1.4-2.89-3.24-4.23-3.94l-.92-.43c.32,1.75.03,2.91-.89,3.47-2.26-.12-4.21.45-6.7,1.6-.29-1.13.09-2.51-.42-2.86l-1.63-1.13-2.29-2.65c-.68-1.47-.44-2.3-2.36-2.81-.88-.24-1.97-1.18-3.09-.8l-.66-.15c-.34-8.83-.6-18.3-.38-27.29,0-.26.44-.45.81-.59,19.51,4.93,37.78,13.63,55.05,24.71-.52,3.82-.23,7.37-.22,11.21l.09,18.7v7.38Z"/>
          <path class="cls-151" d="M122.35,103.89c-25.91,32.52-41.22,69.69-44.2,111.45-1.7.1-4.19.61-4.4,2.17-.31,2.31-.09,4.94.42,7.32l4.62,21.43c-1.18-1.35-1.08-4.23-2.64-5.2-1.95-1.06-4.54.48-6.12,1.2-.51.85-.89,1.03-1.13.51-4.37-50.74,12.28-101.91,43.29-141.99l.88-.67c1.91.1,3.84.18,5.78.26,1.66.57,4.78,1.72,3.5,3.52Z"/>
          <path class="cls-98" d="M219.98,39.72c2.12-.47,3.34.83,3.69,3.89l1.92,11.42c-.07,1.51-.38,2.93-2.01,2.07-7.46,2.08-14.4,5.21-21.62,8.41l-24.97,11.06c-12.7,5.62-25.15,10.86-38.29,15.33-.6.21-1.05.12-1.46-.32,23.01-23.55,51.4-41.65,82.74-51.86Z"/>
          <path class="cls-1" d="M486.32,184.35l-.26-14.45c-.07-4.14-3.01-7.33-6.98-8.93-.88-2.25-2.32-4.74-2.67-7.16.74-1.9,2.26-3.89,2.01-6.17l.43-11.59c22.23,45.26,28.35,94.82,14.1,143.63l-9.96.03c5.32-18.1,8.09-36.3,7.94-55.11-.11-13.72-2.16-26.61-4.62-40.24Z"/>
          <path class="cls-87" d="M339.37,36.82c-.23,13.15-.26,26.31-.09,39.48l-.93.59c-3.1.62-6.16-.36-9.22-1.7l-6.74-2.94c3.11-3.72,4.25-8.16,3.26-12.8l-.94-4.42c-3.75,6.22-10.42,8.98-17.39,8.02l-4.46-3.37-.62-.8c.48-6.45.43-12.88-.16-19.3v-8.69s.99-.69.99-.69c12.28,1.05,24.47,3.42,36.32,6.61Z"/>
          <path class="cls-145" d="M453.16,279.78l-.1-4.94c-.06-2.68-2.46-4.25-4.79-4.55-.79-.1-1.67-.53-2.69-.94,1.39-5.67,7.04-5.48,7.43-6.68.21-.64-.45-1.76-1.29-1.86l-4.7-.58c-1.78-.22-2.74-.38-4.43-.44l-5.32-.2c-.68-.03-1.34-.11-1.59-.6l.45-.99,37.08-.18c3.94-.53,6.79-3.66,7.33-7.53l-.02-31.89c-.43-3.94-2.73-7.14-6.76-7.96h-38.67s-.59-.99-.59-.99c-.2-.3.02-.62.35-.62l8.09-.05c0-.88-.38-1.73-.67-2.67,1.26.47,2.82.55,4.43.55l28.96.03c4.65,0,8.04-2.53,10.07-7.06,3.89,26.93,2.07,53.72-6.13,80.04l-26.44.14Z"/>
          <path class="cls-31" d="M304.32,27.05c-1.81-.64-2.29-2.49-1.46-5.55-.95-2.73-.57-4.19,1.15-4.37,36.8,3.14,72.21,15.8,103.17,36.95-4.59.47-8.03,1.42-10.73,4.82-27.96-18.11-59.48-28.61-92.14-31.85Z"/>
          <path class="cls-113" d="M89.93,195.31c-1.95,5.98-3.34,12.21-3.26,18.42l2.87,34.11-6.27-24.76c-1.68-1.65-2.2-3.5-2.04-5.99,1.32-21.14,5.8-41.83,14.16-61.38l11.14,62.84c-1.38,3.21-1.96,6.15-.98,9.5l-4.98,21.32-3.89-36.66c-1.93-5.75-3.03-11.29-6.75-17.41Z"/>
          <path class="cls-50" d="M215.53,122.95c2.9-.82,5.31,4.21,2.51,5.13.05,1.42-1.06,1.3-1.32-.04-1.47-.39-3.03-.38-4.51-.03l-1.14,1c-7.94,0-11.91,5.75-14.47,12.56-4.27.13-7.83,1.31-10.67,3.56-.57,1.5-1.32,2.56-2.28,3.18-.67.67-1.75,1.1-3.23,1.3l-8.37,7.78-2.99,1.15c-1.39,2.9-3.12,5.41-5.2,7.54l-1.55-6.73-20.31-3.56-1.75-8.42c.04-.6-.02-1.23.2-2.05l10.36-2.43c12.33-2.89,24.05-6.68,36.12-10.62l28.59-9.32Z"/>
          <path class="cls-38" d="M216.48,26.93c1.97-.46,3.44-.19,4.41.82.72.82,2.94,8.15.15,8.21-23.97,7.57-46.07,19.65-65.86,35.13-.97-.49-2.17-.52-3.61-.08-1.39-.72-2.77-.93-4.13-.63-2.54.17-3.98-.54-4.3-2.11,21.43-18.36,46.57-32.5,73.34-41.33Z"/>
          <path class="cls-157" d="M231.81,36.28c2.21-.28,3.28,1.15,3.19,4.31,1.53,4.65,2.89,9.37,4.07,14.15-.44,3.53-.14,6.91.9,10.15l-.57,1.17-.95,1.25c-6.4,1.58-11.03,6.81-12.08,13.16,3.42-2.41,6.78-1.84,3.1,2.72l-2.14,4.85c-.17,1.87-.8,3.21-1.91,4.02l-.26,5.92c-.69,1.06-1.24.79-1.58-.41v-40.46c2.46-1.21-.24-5.63-.38-8.78-.17-3.98-.98-8.74-3.22-8.59,1.48-.48,3-.9,4.5-1.4.57.02,1.15-.07,1.55-.52l1.92-.37,1.51-.62,2.34-.54Z"/>
          <path class="cls-115" d="M303.05,30.21v9.05c0,1.56.62,2.9.41,4.58-.28,2.15-.04,4.24.27,6.24l-.63,6.82c-.09.96.54,1.9-.26,2.78-3.68-2.13-7.65-3.79-11.77-4.82-2.05.55-4.33.54-6.82-.02-7.43.65-9.32-.48-5.68-3.4,2.04-1.54,3.99-2.5,5.86-2.89l-.93-1.25c.54-4.68.32-9.31-.64-13.87-.19-2.08.27-3.42,1.38-4.02,6.28-.05,12.54.27,18.81.8Z"/>
          <path class="cls-18" d="M183.64,148.31c.36.11.9.27.92.53.05.89-.44,3.42-.64,4.4-.6,2.83-1.27,5.33-2.41,8.02-1.15,3.99-.23,7.8,1.22,11.59-3.57,6.02-6.89,12.14-9.96,18.38l-1.05.77c1.46.55-.65,5.31-2.19,5.11l-5.67-31.01c-.28-1.49.54-2.14,1.56-3.16,1.42-1.43,1.71-5.77,4.91-5.88,1.19-.04,1.54-1.02,2.27-1.67l4.93-4.37c1.83-1.62,2.34-3.38,6.11-2.69Z"/>
          <path class="cls-174" d="M155.17,71.09c-12.19,9.53-23.17,20.69-32.82,32.8-.47-1.6-4.61-3.11-5.56-2.87-1.66.41-3.06.6-4.6-.24,6.74-8.71,14.14-16.96,22.19-24.53,2.37-.91,3.9-1.9,5.01-4.29.13-.83.99-1.1,1.41-1.57l2.04-1.51c.18-.07.51-.28.3-.61,2.06,1.11,4.1,1.48,6.34.76,1.44,1.23,3.1,1.41,4.67.18,1.03.28,1.07,1.09,1.03,1.88Z"/>
          <path class="cls-124" d="M250.04,32.31c.69-.02,1.31.09,1.86.35,1.88,6.39,2.93,12.84,3.13,19.34.46,1.13.49,2.07.12,2.81.69,1.12-1.27,3.97-2.57,3.24,1.13.9-.56,2.54-1.56,2.25-2.53-.73-1.88-9.13-.83-11.26-3.64,1.13-7.31,4.63-8.29,8.68l-1.14.35-.38,1.6c1.6.33,1.59,2.89.03,3.28l.44,1.55c2.96.14-.17,4.31-1.45,1.55-1.3-3.22-1.99-6.77-1.1-10.38l-3.14-11.62c-.48-1.78-1.43-3.1-1.35-5.13.05-1.2-1.01-2.41-2.01-2.64,6.05-1.39,12.1-2.93,18.23-3.97Z"/>
          <path class="cls-128" d="M283.49,279.74h-28.5c-1.53-1.22-.47-3.56.95-4.67,3.28-1.16,6.13-2.88,8.55-5.15,6.87-1.73,13.67-3.7,20.39-5.91l2.63.06c-.64-1.7,1.84-3.03,2.92-1.41-.07,2.44.65,4.64,2.48,6.29,2.26,1.22,2.88,2.45,1.88,3.68-5.72-.27-10.24-.31-10.24,6.66l-1.06.46Z"/>
          <path class="cls-6" d="M264.85,30.42h4.11s.58,1.06.58,1.06c.62,5.46.92,10.94.91,16.46.28,1.39-.86,1.58-1.51.35l-1.24,1.3c-3.82,1.13-7.5,2.75-10.75,5.09l-1.81.13c-1.15-1.22-1.23-2.9-1.03-4.54.26-2.15-.3-3.74-.68-5.69l-2.03-10.39c-.18-.91-.55-1.6-1.37-1.88,4.89-.83,9.87-2.2,14.82-1.89Z"/>
          <path class="cls-79" d="M229.92,107.88c.84,4.66,1.57,9.34,3.25,14.04l5.22,14.63c-9.86-4.3-25.42-9.76-33.98-4.55-3.79,2.3-5.55,6.5-6.59,10.83-3.23.38-6.52.19-9.5,1.69-4.05,2.03-1.8,8.16-5.06,15.05-2.03,4.3-1.31,9.12,1.13,13.09-4.7,6.6-8.21,13.32-10.94,20.41-.99.36-1.5-.12-1.72-1.09,2.82-6.57,5.91-12.99,10.12-19.27-2.31-4.55-2.46-9.67-.33-14.35.97-2.13,1.3-4.3,1.65-6.69l.49-3.37c.88-6.11,5.99-6.91,12.38-7.41,2.88-8.48,7.31-12.95,16.18-12.89,1.47-.35,3.04-.36,4.51.03l1.32.04,2.02-.65c4.33,1.05,8.6,2.1,12.81,3.17-2.83-7.41-5.52-15.52-5.84-23.38l.89-.78c-.15-.82-.12-4.55.13-4.73.37-.26,1.2-.26,1.43.05l.43,6.13Z"/>
          <path class="cls-134" d="M284.24,29.41l-.41,3.92c1.4,5.1.81,10.22.6,15.22-2.37.65-4.95.69-7.74.14-2.36.31-4.43.05-6.23-.75-.25.05-1.43-.3-1.35-.67.7-3.43.11-6.87-.09-10.31-.13-2.19.26-4.21-.89-6.33l-3.27-.2c6.42-.78,12.92-.96,19.39-1.01Z"/>
          <path class="cls-121" d="M260.4,17.6c1.48-.09,2.97-.11,4.47-.05.49.26,3.36,10.52-.6,9.55-7.74.75-15.44,1.89-23.05,3.5-.92-.5-1.12-1.64-.59-3.43l-2.03-5,.25-1.22c7.12-1.45,14.29-2.93,21.55-3.36Z"/>
          <path class="cls-44" d="M286.25,16.21l.98.7c.59,2.87.89,5.75.91,8.65l-.98.62c-7.62-.39-15.29.2-22.89.94,1.11-.48,1.52-1.64,1.2-3.02l-1.47-6.32-3.6-.16c8.57-.99,17.21-1.51,25.85-1.4Z"/>
          <path class="cls-161" d="M238.85,20.96c.65.63.98,1.32,1.34,2.27l1.47,3.89-.44,3.49c-6.82,1.44-13.56,3.26-20.19,5.35,1.65-2.69-.73-5.01-1.06-8.13l-3.49-.9c7.35-2.43,14.83-4.43,22.38-5.97Z"/>
          <path class="cls-13" d="M304.01,17.12c-1.39,1.3-.12,3.03-.17,4.49-.07,2.11-.86,3.88.48,5.44l-17.16-.88-.03-2.98c-.01-2.42-1.01-4.67-.88-6.98,5.92.08,11.87.31,17.76.92Z"/>
          <path class="cls-43" d="M286.12,262.34c.79.13,1.32.81,1.38,1.73-7.22,2.83-14.86,4.64-22.59,6.72l-2.32,2.13-6.59,3.23c-.89.73-.6,2.77-1.01,3.6l-1.83-.08.83-5.45c2.64-.83,5.5-1.16,7.4-2.99l2.52-2.43,22.22-6.46Z"/>
          <path class="cls-163" d="M140.12,155.29c-2.57.24-5.06-.65-7.95-1.04l-2.02-10.29,8.25,1.31,1.73,10.02Z"/>
          <path class="cls-29" d="M339.37,36.82l.58.15.22,28.03.03,5.9c1.4.84.98,3.71.53,5.12-.78.48-1.45.69-2.38.87l-.02-39.79c.11-.22,1.07-.24,1.05-.28Z"/>
          <path class="cls-51" d="M451.23,109.55l-2.69-3.16c3.45-1.51,5.54-3.82,6.55-7.64l7.92,10.62-11.79.17Z"/>
          <g>
            <path class="cls-158" d="M113.07,279.75l-35.66.03-4.07-24.12c14.25-1.47,28.12-1.52,42.66-.59l-2.94,24.67Z"/>
            <path class="cls-76" d="M99.19,252.64h-7.11s-3.72-36.38-3.72-36.38c1.52-1.91,4.73-1.96,6.93-.76l3.9,37.14Z"/>
            <path class="cls-76" d="M88.8,252.51c-2.13.7-3.97.39-6.25.59l-6.72-27.24c1.72-1.01,3.73-1.63,5.98-1.9l6.99,28.55Z"/>
            <path class="cls-9" d="M107.53,252.88l-5.83-.26,5.19-22.63c1.72.89,3.29,1.27,5.14,1.81l-4.5,21.07Z"/>
            <path class="cls-130" d="M112.17,229.75c-1.89.14-4.3-.64-5.01-2.53-1.15-3.05-.25-6.54,1.63-9.07l6.45-8.64.74,12.44c.19,3.12-.99,5.84-3.81,7.8Z"/>
            <path class="cls-78" d="M79.43,252.94c-1.65.61-2.89.59-4.53.53l-3.49-9.79c.5-1.08,2.58-1.44,3.77-1.27l4.24,10.52Z"/>
            <path class="cls-108" d="M95.11,213.5c-2.31-.3-4.5-.46-7.06.88l.9-8.69c1.3-.34,2.54-.39,3.84-.13l2.32,7.93Z"/>
            <path class="cls-133" d="M68.89,242.77l1.13-.51c-.19.44-.63,1.24-.41,1.83l3.44,9.36c-.57.17-1.68.76-1.62,1.16l2.76,18.77c-2.87-10.02-4.16-20.35-5.3-30.62Z"/>
            <path class="cls-17" d="M80.53,222.15c-1.29.87-2.66,1.06-4.49,1.57-.34-1.73-.95-3.58-.67-5.54.14-1.01,2.67-1.56,3.03-.75l2.13,4.72Z"/>
            <path class="cls-127" d="M113.21,253.08c-1.5.1-2.66.06-4.13-.25l2.25-9.41,1.87,9.66Z"/>
          </g>
          <path class="cls-32" d="M128.15,153.3l-1.35-7.22c-.11-.61,1.04-1.51,1.74-1.74l1.86,9.33c-.33.32-2.13.23-2.25-.37Z"/>
          <path class="cls-38" d="M134.37,76.25c1.58-1.49,2.99-3.25,5.01-4.29.22,1.32-.14,2.64-1.22,3.42s-2.43,1.01-3.79.87Z"/>
          <path class="cls-144" d="M99.87,149.16c-.34,1.11-1.81,1.63-2.81,2.47l2.45-5.42c.38.73.58,2.09.35,2.95Z"/>
          <path class="cls-38" d="M142.84,68.88c-.02,1.08-1.01,1.52-2.04,1.51.59-.66,1.01-1.43,2.04-1.51Z"/>
          <path class="cls-124" d="M229.47,36.82c-.2.72-.95.51-1.51.62.36-.56.98-.5,1.51-.62Z"/>
          <path class="cls-124" d="M226.04,37.8c-.16.69-.97.76-1.55.52l1.55-.52Z"/>
          <path class="cls-169" d="M379.2,152.63c.59.35,1.09.32,1.48-.07,0-.23,0-.46.08-.66.34-.89,16.93-.35,19.03-.26l.58.88c-.15,1.09-1.44,1.22-2.42.96-2.18-.56-2.95,2.2-4.24,2.71-2,.79-3.72,1.28-3.61,3.79l.94.2c-.34.94-.25,1.26.28.95,1.44.88,2.27,1.86,2.49,2.96,1,.59,1.83,1.59,3.03.95s1.39-1.44,1.97-3.06l2.07,4.55c.25.54-.27,1.64.45,2.12,1.09.74,2.35.53,2.98,1.61.27.47.11,1.33-.38,1.36-2.13.14-3.65-1.12-5.61-1.26-1.13-.08.26,2.73,2.01,4.72l-42.22,5.77c-.98.04-1.86-.14-2.64-.54l-14.13-14.94c-.18-6.25-.08-12.48.32-18.68l7.27-7.04,17.58-.09c.8.32,10.84,10.5,12.34,12.04.28.29.4.61.34,1.02Z"/>
          <path class="cls-33" d="M347.93,117.73l2.86.73c.38,1.62,1.34,1.91,2.8,1.94,3.37.06,6.59,1.03,6.23-1.34.68-.76.89-.64,1.39.1l.26,9.13,1.31,1.44c3.81.47,7.68.66,11.63.59l13.18,13.01,12.96.04c1.25.55,2.49,1.85,1.28,2.92l-3.15-1.26c-1.19-.48-2.45-.15-3.2,1.05.69.55,1.45,1.22,1.77,2.33.61,2.13,3.37.53,3.6,2.36.03.4-.07.88-.33.88-7.21.07-14.46.08-21.67-.02l-12.02-11.79c-5.94-.36-12.41-.6-18.26.16-1.11,1.52-2.21,2.13-3.28,1.82-.77.35-1.27.9-1.48,1.65-.02,1.08-.7,2.11-2.03,3.11-.17,1.49-.63,2.53-1.37,3.1-.55.55-1.2.59-1.97.11-3.68,3.26-7.88.22-6.82-4.38-.99.24-6.17,1.27-5.56-1.1.09-.34.23-.66.44-.95,1.2-.69,1.8-1.91,2.5-2.96.3-.85.31-1.74.04-2.61-.42-.72-.84-1.47-1.77-2.48l7.95-3.86c.54-.21.9-.56,1.07-1.06,3.39-3.53,5.02-7.99,5.47-13.48,1.54,2.21,1.35,4.5,2.1,7.38l4.06-6.56Z"/>
          <path class="cls-120" d="M400.85,150.76c.67,0,1.88-.26,2.57.41l8.57,8.34c1.75-.76,3.61-1.03,4.82.2,1.39,1.41,1.49,3.23.74,4.52-1.13,1.92-2.89,2.02-4.46,1.68-2.42-.53-1.81-2.64-2.6-4.32-1.4-3.02-4.69-5.22-6.72-7.78-1.08-1.37-2.09-1.28-3.4-1.28l-19.7.03c-.31.54-1.02.34-1.48.07-.66-.19-1.24-.45-1.85-1.07l-11.13-11.15-16.89.04-7.12,6.94-.04,17.64,9.17,9.55,4.8,5.08c.62.66,1.19,1.09,1.97,1.21l-3.05.41-1.79-.49-13.62-14.57-.22-15.82.98-.72c-.03-4.57,1.18-4.05,3.4-6.22.12-.86.76-1.27,1.48-1.65l3.4-3.08h18.24s12.22,12.12,12.22,12.12l21.71-.09Z"/>
          <path class="cls-14" d="M391.04,160.2c.87-.88,2.02-1.91,3.18-1.62,1.37.34,2.23,1.36,2.24,2.71.01,1.42-1.23,2.41-2.65,2.82-.91-.53-2.08-.91-2.88-2.13l-24.28-.02-9.65-8.5c-1.29,1.66-3.07,2.42-4.97,1.61-1.56-.66-2.81-2.46-2.33-4.54.37-1.63,2.08-3.19,4.11-3.01,1.75.09,3.58,1.45,3.59,3.85l9.88,8.92,23.77-.09Z"/>
          <g>
            <path class="cls-167" d="M356.66,73.64l.66.15c.23,4.18.36,8.45.37,12.78l4.57,4.35.29-1.11c-1.65-3.04-1.51-4.54,1.18-6.77.89-1.15.08-2.52-1.3-2.06-.43,4.16-1.76,5.56-3.97,4.18-.24-.02-.46-.05-.66-.15-.62-.31-.36-12.09-.26-13.7.02-.35.53-.57.92-.72,1.11-.52,2.24.16,3.39,2.04,1.12.87,1.98,2.04,2.58,3.51l2.42,1.39c-.28-2.34.22-3.23,1.51-2.69l.98.44c-.45,1.37-.18,1.59.8.65l1,.4.13,4.55c.87-1.94,2.06-1.82,3.77-1.09,1.73.04,3.44-.42,5.13-1.37,2.85-.53,5.87,1.53,3.14,3.23-.29.31-.67.55-1.07.44-4.82-1.38-3.33,3.73-.12,2.44l1.04.59c1.9-.48,1.36,1.5-.05,2.43.49,1.03.05,1.96-1.33,2.79-1.42,1.31,3.42,4.2,3.73,4.26.43.09,1.01-.29,1.34-.56,2.11-2.81,4.61-4.25,7.5-4.33.23,3.04.39,6.12.49,9.22,1.43,4.48,4.86,8.05,9.97,8.06l39.57.09c.96,0,1.92,1.54,2.29,2.22l-14.55.3c-5.25.58-9.02,4.82-9.02,10.04v27.53c0,6.09,4.73,10.58,10.75,10.58h32.47c2.65,0,4.86-.29,7.26-1.42.86,1.5,1.41,2.63,1.65,4.25h-29.09c-5.91.01-10.78,4.25-10.79,10.26l-.03,25.62c0,4.56,2.94,8.09,6.92,9.59,1.32.68,2.07,1.48,1.24,2.99-3.13-.16-6.13-.04-9.01.35l-.54,1.01c-3.58.44-6.44,3.36-7.24,6.82l-.27,31.34c.52,5.1,3.19,8.79,8.51,9.35l.72,1.01c5.39.34,10.8.63,16.23.88,2.19.82,2.85,2.49,1.01,4.18-2.97.74-5.01,2.3-6.12,4.69.82.28,1.31.81,1.46,1.58l-.56.99-19.68.2-.98-.46c-6.2-15.18-12.25-30.79-17.97-46.13,7.83-13.16,15.53-26.38,23.1-39.65,1.45-5.41-2.92-10.03-7.41-12.26l-23.72,3.01-.7-.9c-2.75-.32-5.08-5.27-1.32-5.63,5.09,1.73,5.52,1.55,1.3-.52l-1.43-4.44c-1.29,2.25-5.29,2.4-5.07-.4-.1-.41-.1-.85.2-1.11,2.93-2.55.69-4.58-1.78-2.58l-1.19-.22c-2.81.18-2.19-2.02-.46-3.57,1.91-.68,3.45-1.77,4.6-3.26,1.84-.09,3.57-.37,5.19-.84.98-.78,1.14-1.37.48-1.77-1.18-.44-2.46-.74-3.85-.9-.64-.52-2.44-3.96-2.04-4.6.82-1.33,6.03-.79,6.87,1.02l1.09-.7c5.88.23,2.25-7.76-1.78-2.78-4.36.66-8.82.84-13.39.55l-13.39-13.07c-3.99.14-7.91-.08-11.74-.65-1.77-.82-1.7-9.86-1.22-10.84,2.14-1.01,3.84-2.97,2.17-5.23-1.89-2.57-4.48-.31-6.03,1.16-.35.47-.37,1.08.02,1.54,1.12.35,2.24,1.63,2.25,2.82.88,2.29-.29,2.42-2.2,2.56-2.18.17-6.84-.04-7.68-2.37-1.29-.07-1.96-.57-2-1.52l-.5-1.46c3.3-9.14-.08-17.75-6.8-24.27,2.95-3.35,4.59-7.1,4.94-11.23l.98-.98c1.71-2.13.43-7.88-2.35-8.68-1.01-.29-2.22-.03-3.13.43l-.88-.62c-1.49-.44-1.43-5.3-.03-5.9.23-2.27,4.63.17,5.61,1.4.58,1.56,1.52,2.94,2.81,4.15,1.35.77,2.36,1.49,2.28,3.23l2.5-.82c1.66-.62,2.76-.39,3.3.68Z"/>
            <g>
              <path class="cls-173" d="M358.47,70.6v14.57c1.45.93,3.96,2.68,4.08,4.65l11.31,11.38.38,15.44c.03,1.28,1.13,1.53,1.83,2.23l15.57,15.46,9.56.03c.87-.62,1.64-1.8,2.71-1.86l8.59-.46c1.25-.07,2.06-2.1,3.66-1.2,1.22.69,2.04,1.85,1.8,3.23-.29,1.6-1.49,2.23-2.98,2.34-1.34.1-2.02-1.47-2.81-2.18-2.68-.32-5.46-.26-8.02.02l-2.32,1.76-10.88.07-18.46-18.37-.02-15.76-5.15-4.87-10.62-10.1-.03-13.34-.2-17.67c-1.38-1.01-2.81-2.48-1.87-4.42.53-1.1,1.73-2.28,3.61-2.02,1.26.18,2.34,1.14,2.68,2.89.27,1.41-.95,2.62-2.21,3.53l-.19,14.65Z"/>
              <path class="cls-173" d="M391.64,71.96c1.73.82.94,1.55-.32,2.5l-1.01.35c-.35.52-1.37.37-1.8.03-.53,0-1.13-.5-1.44-1.34-5.05-.1-10.05.05-15.01.45-.46.42-1.7,1.15-1.91,2.01-.7,2.91-.31,6.29-.05,9.32l12.06,11.58.07,16.28,5.98,5.96c1.7.26,4.2-.77,5.47.38l5.27,4.8,13.71-.02c.84-1.21,1.92-2.4,3.61-1.64.86.39,1.77,1.37,1.69,2.66s-1.16,1.94-2.05,2.4c-1.52.77-2.41-1.31-3.33-1.34l-14.48-.41-5.34-4.92-5.22-.25-7.02-6.93-.09-16.41-12.13-11.45.06-11.1,3.12-2.94,15.67-.27c.66-.76,1.56-1.51,2.58-1.29.85.18,1.41.76,1.89,1.59Z"/>
              <path class="cls-22" d="M401.84,146.28c-.27-.45-.78-1.78-1.51-1.98l-13.11-.12-13.35-13.18-10.4-.1c-.89,0-2.68-1.54-2.87-2.41l-.16-8.35c-.01-.63-.23-.95-.62-1.08-1.23-.4-2.24-1.53-2.25-2.82-.42-.37-.39-1.13-.02-1.54-.02-2.09,2.06-3.42,4.12-3.24,1.89.16,3.34,1.69,3.5,3.64.15,1.83-.96,3.6-3.06,4.17v7.78c-.01,1.57,1.31,2.38,2.78,2.38h9.85s13.27,13.08,13.27,13.08c4.15-.4,8.34.67,12.38-.46,1.43-.4,2.67-3.21,5-1.46,1.29.97,2.35,2.95.92,4.9-.9,1.23-2.87,1.43-4.47.79Z"/>
              <path class="cls-99" d="M362.55,89.82l-2.52-2.13c-.99-.84-1.57-1.34-1.57-2.52.63-.07,1.3-.26,1.75-.52,1.38-.8.33-4.13,2.08-4.7.7-.23,2.35.19,2.66,1.29.47,1.69-.96,3.64-2.77,4.42.43,1.58.98,2.78.36,4.16Z"/>
              <path class="cls-153" d="M383.33,81.68c-.02,1.08.27,2.4-.15,3.47-.66.33-1.5.76-2.49.67-1.39-.13-2.32-1.31-2.38-2.37-.07-1.25.57-2.41,1.66-2.74,1.22-.37,2.35.18,3.36.97Z"/>
              <circle class="cls-171" cx="404.64" cy="116.35" r="2.59"/>
              <path class="cls-33" d="M357.56,116.24c-.48,0-.56-.38-.56-.75s.09-.76.54-.78l.02,1.54Z"/>
            </g>
          </g>
          <path class="cls-167" d="M387.07,73.49l-15.01.45c.33-.3.7-.61,1.2-.6l13.81.15Z"/>
          <path class="cls-167" d="M391.32,74.46c.28-.86.35-1.67.32-2.5.22.37,1.1.39,1.36.1l1.18-1.3c.56.73.33,1.6.19,2.43l-3.05,1.27Z"/>
          <path class="cls-167" d="M390.31,74.8c.13.61-.46.68-1.01.57-.28-.06-.75-.02-.8-.55l1.8-.03Z"/>
          <path class="cls-147" d="M227.92,106.44l.83,6.64c.84,6.78,3.56,12.82,5.89,19.6-5.83-2.12-11.06-3.73-16.61-4.59.91-1.86-.61-4.54-2.51-5.13l8.1-2.27-.05-23.13c2.1.49,1.16-1.08,1.84-5.51l.2,6.9,1.95,3.5c.63,1.14-.54,2.95.35,3.99Z"/>
          <path class="cls-176" d="M340.41,149.68l.09,16.14,8.16,8.5,6.4,6.96-8.19,1.12c-2.38.32-4.62,1.39-5.95,3.41l-9.36,14.24c-.49.74-1.09,1.12-1.84,1-.54-.09-.93-.46-1.45-.97l-19.15-18.65c-1.51-1.47-3.75-1.74-5.48-1.23-1.62.48-3,1.67-3.76,3.48-1.12,2.67-.06,5.38,1.91,7.5l9.31,9.95-10.04,11.78c-.39.46-.92.93-1.32.8-.34-.11-1.13-.62-1.28-1.13l-6.06-19.94c-2.41-7.92-8.54-14.81-8.14-16.39.29-1.15.92-1.43,2.12-1.71,3.38-.8,6.12-2.84,8.81-4.9,3.89-2.97,6.63-6.76,10.06-10.11,1.44-1.41,3.67-2.37,4.46-4.43,12.22-.09,14.94-10.67,16.79-11.73.43,1.05,1.77,2.32,3.08,1.57.76-.43,1.58-1.02,2.34-.53,2.22,1.44-1.31,3.85,2.21,5.42,1.69.75,2.69.31,3.86-.88.59-.37,1.94.36,2.41.73Z"/>
          <g>
            <path class="cls-64" d="M302.84,59.69c.17-.38.44-.59.84-.6,3.38,3.12,5.19,3.78,9.85,2.81,4.18-.87,7.73-3.33,10.04-6.93,2.4-1.21,2.83,2.33,3.03,4.3.49,4.85.39,8.45-2.62,12.62,4.34,2.47,8.82,3.85,13.43,4.16l.92.85c.18-1.44,1.24-1.66,2.38-.87-.04-1.71,4.01-5.25,5.29-3.61.85,1.09,2.03,6.37.54,7.37.17,4.55-1.61,8.88-5.15,12.15,8.17,6.67,10.16,16.94,6.53,25.81l.55.99c-3.66,7.12-5.75,7.82-6.28,2.11l-2.62,6.88c-.77,1.81-1.87,2.7-3.29,2.68-.12.5-.47.86-1.07,1.06l.04,1.08-6.31,3.06c.64.84.67,1.57.1,2.2.27.86.27,1.76-.04,2.61.89,1.5-1.08,4.27-2.5,2.96l.29,1.05c-3.54,6.32-8.62,11.63-16.44,11.64-4.57,4.62-9.24,9.26-13.99,13.93l-5.02,3.55c-2.22.88-4.26,1.83-6.12,2.86,2.6,4.41,5.03,8.94,7.29,13.59l6.92,22.35c.12.13.35.36.52.32.73-.21,9.95-10.88,9.72-11.6l-9.06-9.71c-5.42-7.35.79-15.3,8.65-11.07l20.65,19.84c3.65-4.78,7.12-9.83,10.4-15.15,1.52-2.13,3.61-2.89,6.04-3.46s6.62-1.35,8.7-.2c-.12-1.11.9-1.24,3.05-.41l.21-1.02c13.52-1.85,27.05-3.7,40.58-5.55l1.44.8,23.62-3.09c2.38-.31,4.28,2.08,5.75,3.43,3.97,3.42,4.91,8.32,2.25,12.77l-21.96,36.7,17.77,45.63,20.52-.26c2.5-2,5.21,1.59,5.76,4.19.26,1.23.48,4.98-.87,5.3-.57,0-1.79.22-1.98-.35-.23-.67-.08-1.37-.12-2.21.42-2.07-.58-4.81-2.91-4.81h-21.9s-18.58-47.67-18.58-47.67l22.91-38.4c1.96-3.28.42-7.11-2.3-9.41-1.26-1.25-2.72-3.18-4.79-2.9l-77.25,10.54c-1.81.25-3.15,1.63-4.04,2.98l-10.33,15.77c-1.2-.14-3.15.07-4.04-.8l-19.14-18.73c-1.75-1.71-3.75-2.51-5.85-.83-1.36,1.09-2.11,3.96-.48,5.7l12.11,12.84c-2.55,1.44-4.14,3.51-5.9,5.64l-8.04,9.73-4.03-2.87c-3.31-13.04-6.39-25.98-14.93-36.55l1.62-4.53c7.85-.59,15.67-8.77,20.22-15.24,2.49-.84,4.2-2.46,4.84-5.13,7.57,1.79,13.12-3.95,16.16-10.81,1-.43,2.25-1.05,2.58-2.19.46-1.62-1.14-1.8-1.66-2.83-.96-1.9-.78-4.09-2.43-5.61,3.54-1.63,5.83-3.98,7.28-7.63,1,2.66.61,5.36-.06,8.22,8.97-3.7,11.05-13.64,8.13-22.46,3.33,2.45,5.06,5.78,6.47,9.86,5.65-9.65,2.61-21.56-7.06-27.17,5.63-3.24,8.07-9.66,6.3-15.91-4.73,4.47-11.25,3.8-16.45.72-2.8-1.66-5.57-2.85-9.13-3.54,4.06-3.26,6.45-7.93,5.12-13.31-4.51,4.28-10.41,6.63-16.35,5.3l-8.83-1.98,6.15.18c-3.97-3.28-8.59-5.1-13.35-6.29-1.27-.43-1.3-1.74-.07-2.26.32-.17.65-.33,1-.42,1.9-.5,9.99,2.87,10.77,5.24Z"/>
            <path class="cls-99" d="M346.55,79.78c-.09-2.54-.61-5.03-1.54-7.48-1.49,1.73-2.78,2.8-4.29,3.72-1.16-1.55-.52-3.47-.53-5.12,2.34-1.52,5.98-1.22,7.12,1.74.5,1.32.15,3.08.98,4.42.41.66.15,1.5-.17,1.91-.38.48-.96.74-1.57.8Z"/>
            <path class="cls-102" d="M326.78,133.96c-.57-.8-.86-1.71-.4-2.3.33-.41,1.13-1.06,1.67-.95-.29,1.57-.64,2.5-1.27,3.25Z"/>
            <path class="cls-176" d="M329.01,140.4l.04-2.61c.58.99.58,1.67-.04,2.61Z"/>
            <path class="cls-176" d="M335.23,131.46c.28-.43.66-.79,1.07-1.06.09.17.06.65-.04.8-.16.22-.78.14-1.02.26Z"/>
          </g>
          <path class="cls-147" d="M216.71,128.04l-4.51-.03c1.29-.71,3.26-.73,4.51.03Z"/>
          <path class="cls-157" d="M240.38,59.67c-.13-.74.22-1.06.38-1.6.12.58.03,1.16-.38,1.6Z"/>
          <g>
            <path class="cls-2" d="M283.49,279.74l.34-2.43c.19-3.24,2.49-5.57,5.73-5.61l5.52-.07c-3.72-1.9-6.05-5.11-5.52-9.21l-2.06,1.63c-1.12.13-1.5-.74-1.38-1.73,2.13-.62,3.26-3.29,3.47-5.25l.49-4.4c2.59-1.39,5.37-1.91,8.41-1.51l-6.43,10.79c-2,3.36,2.25,7.93,5.32,8.03l11.52.37c-.32,1.32-.88,2.34-1.69,3.37l-18.13.11c-3.94.02-2.83,5.31-3.72,5.82-.42.24-1.21.07-1.87.07Z"/>
            <path class="cls-119" d="M291.77,258.04c-.04-1.15.01-2.43.49-3.79.24-.67,1.71-.98,2.35-.85l-2.84,4.64Z"/>
          </g>
          <path class="cls-167" d="M380.68,152.56c.05.5-.26.68-.71.63s-.55-.44-.77-.56l1.48-.07Z"/>
          <path class="cls-176" d="M345.29,141.81c-.37.68-.94,1.12-1.48,1.65-.15-.46-.02-1.3.38-1.4l1.1-.26Z"/>
          <g>
            <g>
              <path class="cls-41" d="M107.78,130.74c4.92-8.63,10.85-17.03,17.17-24.93,1.92-.02,3.56-.72,5.75-1.07l.11,32.38c-7.72,1.56-15.17,2.61-22.76,3.23l-.27-9.61Z"/>
              <path class="cls-154" d="M119.49,131.54c-1.01,4.09-4.05,3.18-2.97,5.37-.71.74-1.84.23-2.51-.52-.56-.64-1-1.9.12-2.5.72-.39,1.89-.4,2.34-.89,1.22-1.35-.1-4.25,1.71-8.25-2.77.88-2.19,4.32-3.21,4.16-2.08-.34,0-4.91,4.39-6.96-.86-.7-1.59-.9-1.9-1.3-.19-.24.28-4.15,1.21-5.17,1.01-1.12,6.24-2.26,5.54-.3-.59,1.63.41,2.73.51,3.79.17,1.77-1.32,3.11-2.7,3.4.34,1.33,1.21,1.95,1.9,2.09,1.17.24,1.65-.83,2.45-1.72.49-.55,1.64.74,1.29,1.61-.6,1.48-4.14,3-5.46,1.23-.42,1.24-.46,2.13-.37,3.33,1.85.69,2.47,2,2.4,4.26.48-.54,2.2-.88,2.26-.11.09,1.2-2.16,2.71-3.38,2.44-1.04-.32-1-2.43-.85-3.46-.48-.57-2.1-.82-2.76-.46Z"/>
            </g>
            <g>
              <path class="cls-46" d="M223.58,57.1l.98.45c.16,8.18.04,16.39-.37,24.61.51,1.4.51,14.47.04,15.06-.14.17-.38.27-.66.34.39.04.97.18.99.45.33,7.62.05,15.58-.23,23.15-2.58,1.2-6.04,2.66-8.81,1.79.08.38.13.99-.13,1.08-23.61,8.46-49.54,16-74.03,22.09-.07.69-.38,1.07-1.12,1.25l-.76-3.47,6.87-2.7c-2.79.8-3.97-.66-3.54-4.37l-2.53.65c.14,4.88-1.65,7-6.21,4.5.15-3.64-.4-3.45-3.48-2.33.11.9.09,1.76-.05,2.57-1.79-.34-3.04.61-4.5,1.68-1.01-.29-1.38-1.32-1.13-3.1-1.75-.59-2.51.65-2.26,3.7-1.27,1.29-.9,1.71,1.13,1.26-.37-.89.35-1.2,1.3-.99-.14,1.37.19,2.71.38,4.05l-.85.53c-6.03.32-11.49.61-16.37.89l-2.84-.5-1-.4-.17-5.99-1.36.03-.02,5.13-.99.67-2.03-.03c-.65-.53-.76-1.52-.35-2.95l2.79-5.68c.71-.48,1.69-.56,2.93-.25-.3-2.25.01-4.27.69-6.41.56-1.02.81-2.36,1.85-3.13l1,.4.23,8.18,20.82-2.94-.11-30.35-4.01.73-.75-.95,2.88-3.6c.84-1.05,1.5-2.2,2.72-2.72.78.25,1.08.96.91,2.14l2.75-.62c-.61-2.41-.27-4.3,1.01-5.67,3.14-1.45,4.85-1.06,5.12,1.17-.55,2.57.34,3.16,2.66,1.76-.68-1.85-.77-4.4.81-5.75-2.99,1.2-6.07,2.37-9.34,2.02.77-1.17,1.85-2.02,2.78-2.96l16.17-6.14c20.06-8.49,39.89-17.05,59.47-25.7,2.65-1.07,5.34-2.04,8.07-2.89.38-.12.81-.08,1.27-.04s.91.16,1.36.29Z"/>
              <g>
                <path class="cls-129" d="M125.49,148.82l.63,4.47-17.86-3.05c-.05-.21-.03-.6.1-.75.15-.18,10.09-.67,15.73-1.26.63-.07,1.16.3,1.4.59Z"/>
                <polygon class="cls-135" points="105.43 149.74 101.9 149.19 101.93 142.41 105.22 142.34 105.43 149.74"/>
                <path class="cls-114" d="M102.3,140.53l3.63-6.66.34,7.34c-1.5.18-2.91.07-3.96-.68Z"/>
                <g>
                  <path class="cls-81" d="M139.49,143.9l-8.93-1.68c-.92-.23-1.41-2.72-.53-3.32,1.28-.87,3.27-.84,4.81-1.17l.25,4.5c1.04.21,3.19.25,3.81-.82l.5-4.82,4.41-.99.11,4.78c1.51.1,3.02-.16,4.35-.95l.05-5.27,3.7-.82.14,5.12c1.8-.33,3.38-.76,4.86-1.56l.11-5.24,5.26-1.32.17,5.07c1.56-.16,2.9-.44,4.35-1.07l.15-5.62,4.26-1.23.05,5.56c1.83-.34,3.28-.84,4.82-1.59l.14-5.68,4.47-1.32.38,5.48,4.52-1.48.58-6,5.04-1.6.18,5.8c1.72-.31,3.29-.67,4.6-1.46l.37-5.53c.08-1.24,2.75-1.53,3.86-1.6l.15,5.88c1.55-.01,2.85-.4,4.11-1.17l.23-6.39c1.2-.58,2.17-.86,3.35-1.01l.16,5.83c1.29.1,2.57-.29,3.54-1.06l.22-6.01c.78-.81,2.52-1.11,3.46-1l.23,5.58c.99.09,3.32-.15,3.78-1.05l.37-6.02c.71-.27,1.36-.41,2.2-.37l-.02,8c-7.71,1.94-14.79,4.44-22.43,7.01-20.01,6.72-39.9,12.83-60.19,17.61Z"/>
                  <path class="cls-37" d="M130.55,99.49c.63-2.08,2.77-3.2,3.92-4.94,30.14-8.88,57.7-24.48,87.57-35.39l-.12,7.96-2.23.75-.09-5.68c-1.68.42-3.01,1.03-4.22,1.94l.09,5.47-3.35,1.18-.21-5.45c-1.26.31-3.1.71-3.56,1.71-.79,1.71-.34,3.74.29,5.21l-3.75,1.29-.29-5.49-4.02,1.57c-.38,2.05-.13,3.92.23,5.83l-4.35,1.9-.38-5.52c-1.57.54-3.53.92-4.56,2.01-.86,1.64-.22,3.93.04,5.72l-5.68,2.34-.24-5.25c-1.66.36-3.03.89-4.49,1.7-.32,2-.17,3.81-.04,5.79l-4.76,2.02-.06-5.33-4.62,1.74-.22,5.56-4.39,1.83c.21-2.08.2-3.49-.08-5.29l-4.44,1.65c-.47,1.93-.22,3.68-.1,5.65l-5.33,2.11c.25-1.87.44-3.52-.28-5.17l-4.4,1.56c-.44,1.84-.41,3.69.19,5.48l-4.36,1.49-.07-5.36c-1.4.23-2.9.54-4.03,1.42-.69.54-1.18,4.81.74,5.32l-5.59,1.64c.09-1.85.28-3.43-.17-5.21l-3.92,1.16c-.36,1.83-.24,3.57.17,5.36l-4.81,1.21c-.08-1.21-.3-2.55-.02-3.45Z"/>
                  <path class="cls-20" d="M126.06,143.9c-.33.24-.69.51-.95.87-.32.45-.57.95-.83,1.74-5.48.61-10.76,1.18-16.22,1.1l.22-5.32c.03-.69,2.27-.93,2.33-.37l.39,3.73c.81.15,3.12.42,3.23-.41l.45-3.39c.13-1,1.93-1.01,3.23-.97l.13,4.1c.87.23,3.6.42,3.68-.67l.3-4.06c1.18-.54,2.54-.62,3.84-.75l.2,4.39Z"/>
                  <g>
                    <path class="cls-142" d="M204.23,114.81l-14.23,4.73-.04-37.53c10.59-4.67,21.11-9.09,32.01-13.16l.1,40.57c-5.99,1.59-11.7,3.34-17.84,5.38Z"/>
                    <path class="cls-30" d="M209.33,105.61c-.28-1.69-2.73-1.55-3.87-1.15-.27,3.03-2.16,4.98-5.05,6.09.65.35,1.37,1.79.64,2.29-1.2.83-2.55-.2-3.17-.86-.73-.78-1-3.07.2-3.55,1.37-.55,2.45-.72,3.14-1.65,1.14-1.54,1.07-2.73.94-4.45-.17-2.15.71-4.13,1.18-6.38-3.87,1.45-1.99,4.81-3.48,5.75-.57.36-1.41.13-1.73-.26-.93-1.15,2-7.61,6.65-9.87-1.23-.69-3.21-1.35-3-2.48.25-1.32.78-2.73.88-4.16.22-3.09,3.36-4.06,5.79-3.91.4-.27,1.1-1.3,1.48-1.09.35.2,1.27,1.06,1.15,1.47-.65,2.11.33,3.6.9,5.31.8,2.4-1.5,4.7-3.62,4.57.48,1.54,1.78,2.6,2.7,2.7,2.65.29,3.02-2.85,4.84-2.76.44.02,1.1.65,1.07,1.16-.1,1.96-1.39,2.42-2.76,3.18-1.81,1-3.43,1.82-5.46.1l-.24,4.64c2.55.84,3.58,2.59,3.54,5.53,1.08-.94,2.65-1.81,3.38-.95-.36,2.17-2.96,4.38-5.16,4.46-1.17-.32-.74-2.54-.94-3.73Z"/>
                  </g>
                  <g>
                    <polygon class="cls-142" points="160.26 129.09 160.2 94.74 187.89 83.08 187.94 120.17 160.26 129.09"/>
                    <path class="cls-118" d="M177.26,116.32c-.15-.75-2.39-.92-3.15-.85-.51,2.87-1.76,4.93-4.77,5.79.43.28,1.12,1.3.83,1.64-.94,1.09-2.26.03-3-.66-.59-.55-1.25-2.44-.05-2.93,1.39-.58,2.5-.56,3.24-1.52,1.3-1.68.88-2.74.68-4.59l1.32-5.78c-3.82,1.83-2.4,4.82-3.7,5.39-.6.26-1.14-.07-1.49-.44-.7-.76.04-1.31.36-1.96,1.34-2.76,2.83-4.81,6.11-6.08-.55-1.29-1.73-1.31-2.66-1.97l.87-2.34c-.03-1.71.06-3.05,1.05-4.18s2.52-1.37,4.39-1.47c.41-.02,1.01-.75,1.37-.82,2.2-.41-.21,3.56,2.09,6.38-1.03,2.13-.42,3.12-3.27,4.13-.44.92.97,2.29,1.76,2.52,2.43.69,3.18-2.93,4.67-2.22.5.24.77,1.09.6,1.82-.36,1.49-1.67,1.55-2.74,2.17-1.57.91-2.98,1.33-4.41-.17-.49,1.59-.5,2.61-.53,4.14,2.39.7,3.03,2.66,3.02,4.96.97-.36,1.41-.71,1.72-.95.39-.32,1.37.37,1.14.89-.77,1.73-2.69,2.71-4.32,3.37-1.04-1.15-.78-2.39-1.13-4.26Z"/>
                  </g>
                  <g>
                    <path class="cls-117" d="M158.62,129.55c-8.45,2.86-16.83,4.95-25.82,6.99l-.04-32.43c8.78-2.49,17.13-5.41,25.8-8.74l.06,34.17Z"/>
                    <path class="cls-60" d="M145.01,124.57c-.37,2.47-1.84,3.78-3.84,4.76.42.7.62,1.16.69,1.47.1.51-.44.92-.78.9-.96-.04-2.16-1.05-2.63-2.09-1.14-2.51,2.6-2.1,3.69-4.01.63-1.1-.03-2.2.24-3.53l1-4.9c-3,1.3-2.23,4.33-3.29,4.62-2.55.69-.61-5.66,4.92-7.63-1-.94-1.8-1.12-2.66-2.04.83-1.17.79-2.41,1-3.7.37-2.39,2.71-2.9,4.8-3.11.63-.06,1.22-.89,1.57-.68,1.63,1,.04,3.02,1.04,4.58.84,1.31.43,2.13.04,3.36s-1.71,1.41-2.64,1.91c.27,1.26,1.49,2.17,2.3,2.26,1.02.11,1.79-1.46,2.73-1.8,1.19-.43,1.44,1.09,1.19,1.68-.68,1.57-4.71,3.33-6.37,1.3l-.56,3.88c2.41.38,3.32,1.88,3.4,4.49.47-.74,2.41-.99,2.35-.33-.18,1.87-2.38,3.09-3.76,3.23-1.2-1.17-.65-2.66-1.09-3.77-.35-.9-2.11-1.05-3.31-.85Z"/>
                  </g>
                </g>
              </g>
            </g>
          </g>
          <g>
            <path class="cls-83" d="M445.37,104.93l-41.03-.14c-3.85-.01-7.36-4.06-7.38-7.7l-.17-31.1c-.03-4.72,3.04-9.29,8.04-9.3l39.86-.06c4.68,0,8.37,3.73,8.36,8.38l-.05,32.01c0,4.19-3.45,7.04-7.63,7.92Z"/>
            <path class="cls-67" d="M444.92,102.45l-39.57-.07c-3.59,0-5.99-2.95-5.99-6.33l.04-31.03c0-3.56,2.95-5.95,6.4-5.95l38.89.02c3.26,0,5.88,2.68,5.88,5.92l.03,31.01c0,3.33-2.13,5.92-5.68,6.43Z"/>
            <rect class="cls-82" x="410.65" y="78.57" width="28.53" height="3.87" transform="translate(250.6 476.29) rotate(-76.96)"/>
            <path class="cls-77" d="M434.24,89.87c-.7.65-2.76-1.42-2.38-2.17l6.98-7.27-6.73-6.79c-.48-.65,1.47-2.68,2.15-2.26l8.62,7.73c.48.43.73.93.73,1.4s-.27.96-.73,1.39l-8.64,7.96Z"/>
            <path class="cls-11" d="M417.83,87.35c.77.81-1.2,2.47-2.11,2.64l-8.81-8.4c-.73-.7-.45-1.77.23-2.41l8.46-7.91c1.05.07,2.68,1.62,2.35,2.43l-6.66,6.81,6.54,6.84Z"/>
          </g>
          <g>
            <path class="cls-101" d="M434.5,209.43l37.78-.14c5.04-.02,9.24,4.37,9.25,9.38l.03,31.06c0,4.51-4.25,9.05-8.88,9.07l-36.99.16c-6.01.03-10.25-4.98-10.22-10.71l.13-29.64c.02-4.56,4.29-9.16,8.9-9.18Z"/>
            <path class="cls-155" d="M472.05,256.62l-36.69.02c-4.44,0-7.66-3.64-7.66-7.89v-29.48c.02-4.52,3.69-7.85,8.14-7.85h35.43c4.68,0,8.23,3.62,8.22,8.27l-.05,29.39c0,3.92-3.07,7.54-7.39,7.54Z"/>
            <path class="cls-52" d="M471.55,254.19l-36.65-.11c-2.64,0-4.62-2.36-4.62-4.87l-.06-29.58c0-2.98,2.06-5.71,5.25-5.71h36.19c2.87,0,5.19,2.38,5.19,5.22v30.03c-.01,2.92-2.21,5.03-5.3,5.02Z"/>
            <path class="cls-95" d="M436.85,248.2c-.8,0-1.38-.4-1.55-.79-.33-.77-.01-1.5.58-2.13l8.99-9.59,5.99,5.64,12.05-12.99,8.98,9.61-.05,10.22-34.98.02Z"/>
            <circle class="cls-162" cx="444.82" cy="226.17" r="4.62"/>
          </g>
          <g>
            <path class="cls-28" d="M476.46,204.43l-31.75-.15c-3.63-.02-7-3.67-7.02-7.24l-.1-26.14c-.02-4.63,3.52-8.03,8.09-8.04l29.55-.06c4.61,0,8.64,2.89,8.64,7.75v25.83c0,4.24-2.99,7.45-7.41,8.07Z"/>
            <g>
              <path class="cls-66" d="M475.95,201.87l-30.26.04c-2.9,0-5.15-2.1-5.61-4.91l.09-26.6c.01-3,2.61-5.04,5.5-5.04h30.03c3.26,0,5.64,2.29,5.64,5.52v25.14c.01,2.96-2.01,5.85-5.4,5.85Z"/>
              <path class="cls-95" d="M455.53,194.22c-.75.44-1.58.3-1.96.04-.41-.28-.62-.98-.62-1.69v-18.26c-.01-.69.25-1.33.71-1.59.33-.19,1.02-.39,1.59-.06l16.16,9.41c.73.42.97,1.16.9,1.83-.08.71-.62.99-1.35,1.42l-15.41,8.91Z"/>
            </g>
          </g>
          <g>
            <polygon class="cls-152" points="145.94 279.65 125.26 279.76 128.75 253.09 140.06 252.97 145.94 279.65"/>
            <path class="cls-149" d="M107.78,216.19l-10.96-62c.98-1.1,1.95-1.74,3.3-2.53l10.49,60.74c-.68,1.33-1.28,2.55-2.82,3.79Z"/>
            <path class="cls-72" d="M157,242.31c1.47,0,0,6.1-.24,6.43s-.69.41-1.1.48c.12-.24.02-1.04-.55-1.04l-32.86.08-.72-5.74,35.47-.21Z"/>
            <path class="cls-164" d="M173.44,193.08l-5.05,13.12c-4.78,14.04-7.95,28.16-10.46,42.83-1.77,10.32-3.28,20.17-3.86,30.58l-2.11.15c-.6-3.6-.49-6.91-.18-10.49.37-4.36.83-8.98,2.87-12.72l-.26-2.87c-.07-.78.82-1.37.9-2.13-1.38-.42-.94-1.56.3-1.83-.03-.16.05-.35.08-.51l1.34-6.91.13-1.53c1.08-.71.58-2.19.84-3.47,2.7-13.12,6.47-25.67,10.68-38.1l.88-2.11,2.19-5.11c.88-.07,1.56.32,1.72,1.09Z"/>
            <polygon class="cls-34" points="123.68 279.57 117.66 279.68 121.61 253.15 127.15 253.14 123.68 279.57"/>
            <path class="cls-10" d="M154.65,256.55c-1.25,7.66-2.48,15.4-2.69,23.22l-6.13-26.68c2.1-.27,4.11-.26,6.33-.03l1.73,5.13c.28-.85.39-1.28.76-1.64Z"/>
            <path class="cls-106" d="M150.35,279.4c-1.08.61-2.03.45-2.94.15l-5.69-26.33c.68-.44,2.1-.41,2.56-.02l6.07,26.19Z"/>
            <path class="cls-110" d="M155.59,249.72c.12.64-.25,1.27-.3,1.83l-37.13-.05c1.52-.9,3.19-1.59,5.18-1.6l32.26-.17Z"/>
            <path class="cls-24" d="M116.2,279.38c-.11.73-1.37.53-1.33.22l3.18-24.53c-.33-.67-.79-1.05-.88-1.91l2.89.03-3.85,26.19Z"/>
            <polygon class="cls-111" points="120.73 248.55 114.32 251.13 113.38 245.72 120.1 242.79 120.73 248.55"/>
            <path class="cls-15" d="M113.2,243.75c-.25-1.79-1.1-3.58-.75-5.35l1.62-8.12,2.34,12.03c-.98.81-1.86,1.19-3.22,1.44Z"/>
            <g>
              <path class="cls-165" d="M168.65,199.21v2.07c-4.2,13.18-7.63,26.39-10.29,39.63l-1.23-.13-33.99.11c-1.93,0-3.17,0-5.36.97l-1.72-13.19c.29-2.51,1.67-4.72,1.55-7.6l-.66-16.35-5,6.08-10.29-59.97,59.39,9.92,7.61,38.45Z"/>
              <g>
                <path class="cls-25" d="M147.91,230.99c-1.16-3.27-2.51-5.85-4.84-8.21-1.37.02-3.18-.4-4.57.12-1.03.38-2.16,2.85-1.83,3.9.41,1.33,1.07,2.31.36,3.55-1.71,3-8.31.7-8.51-1.63-.08-.96.48-1.7,1.25-3-2.26.27-4.24-.09-5.7-1.4-2.76-2.49-3.38-7.31-1.27-9.19.74-.66,1.74-.47,2.8-.1-.9-5.51-.33-10.43,3.1-14.79-4.04-1.54-5.62-4.3-8.55-2.81.25-.57.82-.92.96-1.31.5-1.36-3.79-1.15-1.54-2.76-.51-.94-1.77-1.62-2.96-2.45l1.94-1.4c-.5-3.29-.82-6.54.36-9.82-1.77-5.05-1.64-10.21-.33-15.33,3.67,2.08,6.46,4.35,9.18,7.64,2.98-.65,6.42.38,9.2-.03,2.04-1.37,3.6-4.09,6.48-4.67,2.25,3.8,3.29,8.29,2.88,12.76,1.99,3.06,2.39,6.38,2.4,9.93.77.19,1.58.43,1.98.8,1.26,1.14-.13,5.83-3.25,8.77,7.49-1.04,4.31-7.31,6.02-9.35.42-.5,1.25-.23,2.03-.32.63-.08,1.26-.81,1.73-.72,1.16.23,4.82,3.99,3.59,7.28-.27.72-1.6,1.34-2.36,1.89-1.67,4.76-5.27,8.66-11,8.36,1.86,4.17,1.97,7.81,1.3,12.02.79,1.86,2.68,4.08,2.5,6.32,1.73-.73,3.13-.75,4.34.24.83.68,1.36,2.71.06,3.8-1.99,1.67-4.74,1.85-7.74,1.92Z"/>
                <g>
                  <path class="cls-89" d="M133.95,218.62c-.18-4.89-3.71-6.98-.99-13.87-3.06,3.07-1.94,7.57-.33,11.29l.38.88c.19.44-.26.93-.7.77-.26-.1-.53-.53-1.15-.89l.62,2.57c-1.19.47-2.15-.31-2.35-1.79-.98.52.58,2.84-.63,2.31-.2-.09-.8-.19-.98-.6-4.03-9.62.49-19.19,2.91-18.44.71.22,1.25,1.03,1.4,2.23.52-.38.6-.78.61-1.64,3.5.7,6.86.76,10.53.06,3.74,5.36,7.21,14.33,3.03,18.2-3.62,3.35-9.18,2.56-12.35-1.06Z"/>
                  <path class="cls-165" d="M157.76,197.55c-1.47,5.01-5.51,8.95-10.8,8.16l-2.77-4.88c3.95.53,7.76-.89,9.26-4.54l.57-5.34c.06-.59,1.15-.01,1.22.32.09.45.14,1.18.53,1.87.68-.79.54-1.99.91-2.83.47-.31,1.11,0,1.17.26.09.4.09,1.12-.15,1.72-.45.77.58,1.1.78.28.21-.53.66-.69.88-.6,1.37.58-1.5,3.07.8,2.9.2,1.33-1.19,2.26-2.4,2.67Z"/>
                  <path class="cls-85" d="M135.53,230.49c-1.87.95-5.03-.08-6.45-1.61.14-1.35,1.25-1.94,2.02-2.86.21-2.53.42-4.78,2.04-6.93,1.2,1.37,2.57,2.23,4.3,3.16-.62,1.3-2.16,3.16-1.86,4.77.16.84,1.8,2.54-.04,3.47Z"/>
                  <path class="cls-90" d="M155.55,226.88c.5,2.12-3.13,3.64-6.9,3.17-1.2-2.73-2.23-5.26-4.62-7.59,1.54-1.06,2.81-1.66,3.93-2.8,1.66,2.22,2.69,4.18,2.21,6.97,1.36-.87,2.43-1.37,3.93-1.1.8.15,1.32.79,1.45,1.35Z"/>
                  <path class="cls-42" d="M126.37,221.95c1.76,1.13,3.44.41,4.41-1.46.31,1.39-.31,2.71-.79,4.02-2.43.74-4.67.09-6.17-1.81-1.81-2.29-2.37-5.53.03-7.2.42-.29,1.72.31,1.55.81-.87,1.77-1.05,4.35.97,5.64Z"/>
                  <path class="cls-160" d="M143.2,170.26c-2.73,1.1-2.23,4.48-5.14,2.4,1.27-1.69,2.91-3.22,5.14-4.31,1.04,3.06,2.35,5.8,1.92,9.01l-1.92-7.11Z"/>
                  <path class="cls-45" d="M143.71,176.29l-2.84-2.55,1.8-2.36c.58,1.61,1.16,2.67,1.04,4.91Z"/>
                  <path class="cls-27" d="M125.63,217.33c1.36.14.37,2.94,3.54,3.65-1.08,1.02-2.12.24-2.65-.16-.89-.66-1.21-1.93-.88-3.49Z"/>
                  <g>
                    <path class="cls-89" d="M123.88,196.26l2.18-1.49c-1.95-.6-3.72,1.52-5.02-.65l3.58-1.77c-2.53-.53-3.87,1.89-6.07-1.41l4.62-1.08c-1.09-.49-2.11-.33-3.62-.32-.69-3.44-.72-6.88.5-10.31-1.83-4.31-1.72-8.89-.68-13.21,3.09,1.83,5.24,4,7.57,6.5-.33.21-.91.34-.85,1.13,4.1-1.22,8.86-1.53,12.98.5,6.27,3.09,9.26,9.99,8.58,16.71.66.15,1.13.21,1.33.17.39-.09.97.19.86.78-.06.29-.69.73-1.01,1.1.05.4.91.67.92,1.02.05,1.58-3.14.75-1.12,2.31-5.08,7.35-16.7,5.37-24.72.03Z"/>
                    <path class="cls-68" d="M133.39,178.24c-1.54-.16-2.33-.44-3.12-.03s-1.08,1.21-1.52,2.12c-.72-1.54.27-2.68,1.3-3.25,1.19-.66,2.9-.5,3.35,1.16Z"/>
                    <path class="cls-47" d="M143.71,179.76c-1.12-.51-2.05-.6-3.29-.54.31-.94.99-1.07,1.67-1.01.56.05,1.57.03,1.61,1.55Z"/>
                    <g>
                      <path class="cls-132" d="M142.1,196.84c-.63.22-.78,1.74-1.3,2.01-.79.41-2.2.46-2.81-.5-1.04-1.64-2.68-2.78-3.07-4.89,1.8,1.8,3.66,3.14,5.96,2.13.59-.26.94-.84.95-1.32.02-1.17-2.59-1.54-2.14-2.98.2-.63,1.27-.85,2.53-.73-1.82-3.05-1.97-7.18-.55-7.88,2.31-1.13,5.08,5.4,1.9,10.57-.52.23-1.23.54-1.25,1.04-.02.68-.08,1.11.68,1.67.52-.38.93-.83,1.84-.98-.23,1.51-1.28,1.32-2.74,1.84Z"/>
                      <path class="cls-26" d="M140.6,197.01c.62.61-.3,1.56-.97,1.37-.61-.17-1.49-.43-1.67-1.64.55,0,2.11-.26,2.65.27Z"/>
                      <path class="cls-88" d="M143.82,186.77c-.92.11-1.14-.58-1.39-.93-.36-.49-.21-1.7.31-1.64.88.27,1.22,1.57,1.09,2.57Z"/>
                    </g>
                    <g>
                      <path class="cls-126" d="M133.88,183.3c2.46,3.05,1.77,7.72-.19,7.88-.55.04-1.17-.16-1.63-.71-2.49-2.98-1.78-7.72.19-7.91.57-.05,1.18.17,1.64.74Z"/>
                      <path class="cls-150" d="M133.58,185.94c-.74.67-1.17-.07-1.41-.29-.38-.35-.72-1.45.03-1.87.84-.47,2.17,1.45,1.38,2.16Z"/>
                    </g>
                    <g>
                      <path class="cls-55" d="M125.27,174.09c-1.93,1.26-3.07,2.3-4.52,3.74-.89-3.04-.8-5.81-.43-9.03,2.15,1.19,3.42,2.97,4.94,5.29Z"/>
                      <path class="cls-100" d="M124.08,173.68l-2.86,2.66c-.39-2.13-.47-3.87-.02-6.04l2.88,3.38Z"/>
                    </g>
                  </g>
                </g>
              </g>
            </g>
          </g>
          <g>
            <path class="cls-146" d="M217.18,228.61c-7.34-.66-13.35-.42-19.31,4.42-3.19,2.59-5.7,6.02-7.12,9.88,2.58-2.05,5.28-3.88,8.13-5.51l.8.96-.17.46c-.13.5-.01.65.49.42,7.35-6.9,19.47-11.88,28.66-6.9-6.96,2.71-12.95,6.94-16.54,13.59,5.52-5.01,10.71-9.33,17.54-11.86,2.81-1.04,5.72-1.44,8.29.05-1.38.7-2.66.75-3.62,1.83l15.34-2.6c3.02-.51,5.91-1.05,9.08.28-6.63,3.84-7.57,12.36-7.1,19.96,1.18,3.47-1.14,8.8-4.86,9.71-14.44,3.51-29.16,5.08-44.02,4.37-6.13-.29-12.25-5.68-14.99-10.92-8.22-15.71-9.37-38.9-9.68-56.42,1.56-10.15,4.01-20.18,12.69-26.83,5.5-4.21,12.79-3.85,18.11.84,12.65,11.15,10.92,30.72,10.13,47.4l-13.35-10.6c3.26,5.49,8.11,9.1,12.87,13.01,1.36,1.12,2.86,1.87,3.3,4.08l-4.67.34Z"/>
            <path class="cls-146" d="M279.11,228.09l-1.13-.02-2.96-5.69c.14-1.43.71-2.84,1.72-4.24-1.55.98-3.79,2.2-3.98-.39,2.05-6.3,3.05-12.84,3.94-19.38-.13-1.89.96-3.89.07-6.03-3.7,14.54-9.9,26.97-17.18,39.56-2.02-.73-3.85-.97-5.86-.73-4.55.34-8.88.99-13.43,2.04-3.09-1.74-6.17-2.45-9.77-1.67-1.63-2.25-4.82-1.98-6.68-3.29-.92-1.36-1.06-3.99-3.23-4.8,1.13-16.21,2.74-36.03-8.16-48.25-4.41-4.94-10.34-7.66-16.83-6.18-4.88,1.11-7.86,4.5-11.55,7.89,2.51-4.85,6.26-8.67,10.52-11.86,10.03-7.51,26.03,1.63,34.65,10.03l12.49,12.18-.36,10.73-3.19,24.61c-.19,1.49,1.15,2.36,2.12,2.65.72.21,2.55.26,2.75-.97,1.78-10.95,3.06-21.77,3.85-32.69,1.51.82,2.4,2.24,3.85,2.27l-3.54-5.68c-.3-1.72-.25-3.14-1.79-3.96-1.22-.65-2.73-.71-3.91.35-1.23-.98-1.83-1.96-2.54-2.98-12.17-15.02-25.57-25.41-44.9-26.69-4.24-1.07-6.86-3.04-5.51-7.76,1.8-2.16,6.21-2.47,9.82-2.32,11.59,3.81,22.71,9.86,31.87,18.05-5.66-5.79-12.08-10.82-18.99-15.07-2.63-2.39-5.81-4.1-9.54-5.14l-1.34-1.68c.94-2.82,2.31-6.13,5.33-7.58,8.96-4.3,22.62,1.11,32.08,5.03,1.4.58,2.47,1.51,2.24,3.06-6.68-3.42-13.13-5.94-20.18-7.22-4.26-.77-8.6-.17-8.78,2.42-.08,1.05.78,1.97,1.82,2.59,8.44,5.06,16.25,10.59,22.73,18.05,8.82,10.15,16.58,24.06,18.37,37.66l10.44-11.74c3.52-4.5,5.63-9.43,5.23-15.57,3.79,2.72,7.15,4.61,11.54,5.27-2.91,7.55-8.79,13.51-16.08,16.83-3.06.96-5.82,2.14-7.79,4.77l4.64-1.05c-.6,8.95-2.18,17.38-3.51,26.13-.26,1.68.15,3.05,1.87,3.29,1.02.15,2.73-.38,2.94-1.98l3.81-29.93c5.52-2.57,9.77-7.25,13.41-11.8,3.69,4.58,6.47,9.35,8.1,14.8l5.51,18.37-5.69-2.65c.59,1.5,1.68,2.4,2.86,3.25l7.6,5.4-7.89,9.11c-1.19,1.38-2.61,2.32-4.32,2.99-1.76-2.62-4.84-3.15-7.59-2.37Z"/>
            <path class="cls-92" d="M251.64,253.62c1.22,4.46,2.23,9.53,6.42,12.62l-2.99-7.62c1.34-.82,3.04-1.16,5.09-1.02,6.25-1.62,12.34-3.65,18.28-6.1l1,.68c.89,2.86,2.84,6.83,4.87,7.19s-.4-1.94-1.03-4.29l4.63-1.51c.16,2.03-.12,6.18-2.71,6.95l-22.82,6.8c-1.05,1.55-2.63,3.04-4.75,3.72-15.58,4.99-34.29,9.23-50.49,7.95-13.49-1.06-20.71-10.06-24.24-22.66-4.38-15.64-7.16-40.76-4.81-55.99,1.21,15.41,3.46,42.45,10.31,55.51,3.04,5.8,8.58,10.66,15.49,10.93,14.25.54,28.17-.93,42-4.22,3.66-.87,5.95-5.82,5.75-8.95Z"/>
            <path class="cls-131" d="M168.43,279.81c-.38,0-.97-.1-.98-.34-.67-17.9.73-39.01,2.99-57.21.9-7.26,2.1-16.01,4.39-22.92l1.39-1.49c-1.01,8.71-1.04,17.25-.39,26.25.8,10.92,2.13,21.4,4.95,31.9,3.01,11.2,8.31,19.79,19.44,23.66l-31.78.15Z"/>
            <path class="cls-146" d="M176.21,197.85c-1.06,4.34-2.29,8.55-3.08,13.26-2.66,15.83-4.25,31.47-4.48,47.52l-.22,21.18-12.63-.11c3.07-32.07,9.51-65.91,23.38-93.95l-2.97,12.1Z"/>
            <path class="cls-146" d="M279.44,252.19l-13.43,4.96c-3.61,1.28-7.25,1.95-10.95,1.48-2.57-6.55-2.14-14.48,1.35-20.74,1.38-2.48,3.24-2.49,5.48-3.1l18.48-5.03c1.83-.5,4.02.03,4.61,1.7-1.26-.15-2.57-.66-3.18-.28-4.76,3-4.47,14.29-2.37,21.01Z"/>
            <path class="cls-65" d="M238.99,181.58c-.83-.16-1.32-.81-1.99-1.49-5.34-5.46-10.83-10.58-17.38-14.53-8.71-5.25-20.75-7.67-27.58-1.09l-6.42,6.18c-2.04-3.18-2.08-6.97-.61-10.3,2.82-6.42,1.78-11.06,3.59-13.22.07,2.2.96,5.15,3.33,6.11,5.38,2.17,18.02,1.06,30.11,10.36,6.68,5.14,12.29,11.32,16.96,17.99Z"/>
            <path class="cls-62" d="M252.58,58.05c1.58-1.16,2.16.1,1.16,1.63l-2.04,3.59c-3.41-3.32-3.98-7.5-3.33-12.24-6.05,3.7-7.42,10.88-4.01,17.12-7.58-1.02-13.8,3.17-16.42,10.23,3.11-1,5.72-1.93,9.17-1.86-7.16,5.26-11.32,13.7-9.15,22.68,1.39-1.78,1.51-3.66,3.08-5.22-1.29,4.88-1.41,9.24-1.14,13.9-.81-4.54.04-5.99-1.76-5.24l-.23,3.79c-1.28.07-1.67-1.07-1.17-3.44-1.9-2.33-2.39-4.39-1.47-6.18l.14-4.78c.68-4.41,2.11-8.51,5.27-12.24-2.42.26-3.6,1.6-5.93,2.64,1.7-8.87,5.96-14.46,14.65-16.4.4-.09,1.47.14,1.71-.28.16-.28-.25-.95-.26-1.27l-.44-1.55c.11-1.08.15-2.24-.03-3.28l.38-1.6c.67-2.18,1.43-4.41,3.24-6.1,2.25-2.1,4.55-3.94,7.82-4.78-1.48,4.3-2.5,8.34-.6,12.49l1.36-1.63Z"/>
            <path class="cls-172" d="M241.28,142.94c-1.73,3.75-4.43,6.56-8.04,9.12-6.31-6.14-13.32-10.59-20.77-15.37,2.81-1.81,5.74-1.31,8.64-.72,6.91,1.41,13.12,4.15,20.17,6.97Z"/>
            <path class="cls-175" d="M279.11,228.09l-12.52,3.53-2.67-3.17,4.54-8.8c3.56-6.91,6.33-13.95,8.25-21.28.46,6.91-.97,13.4-3.25,20.41l4.96-2.65c-.32,2.2-1.54,3.76-2.62,5.67l3.33,6.29Z"/>
            <path class="cls-40" d="M255.19,191.24l-2.69-9.51c1.52.28,2.69.35,3.96-.25.76-.36,1.54-1.41,1.69-2.65l.87-7.22c1.13-2.81,4.46-4.98,6.85-6.54,3.27.22,2.32,8.44.13,12.31-1.79,3.18-3.98,6.1-6.38,8.83l-4.42,5.03Z"/>
            <path class="cls-48" d="M217.18,228.61c-6.91,1.15-13.03,4.47-17.5,9.76-.78-.16-1.41.29-1.98.7l-8.79,6.39c3.09-12.84,16.39-21.45,28.26-16.85Z"/>
            <path class="cls-65" d="M198.4,144.81c4.22.18,8.06,1.72,12.48,2.93-3.15-2.65-6.91-3.6-11-4.43-.03-.94.28-1.63.52-2.34,14.89,6.51,30.42,18.47,39.72,32.35l-10.63-9.83c-5.88-5.34-12.41-9.43-19.56-12.9-4.01-1.95-7.94-3.53-11.54-5.77Z"/>
            <path class="cls-12" d="M284.42,48.55c.41.34.05.97-.53.83-2.57,1.31-4.86,2.56-6.72,4.74,4.92-.59,9.44-.37,13.9.74.18.73.17,1.49.07,2.26-6.53-1.63-13.26-1.78-19.92,1.02,1.76-3.62,4.64-5.81,7.58-8.18-4.1-.49-7.82-.11-11.46.88-.4-1.06.83-1.98,1.6-2.55l1.51-.35c4.73-.59,9.41-.13,13.97.62Z"/>
            <path class="cls-5" d="M244.19,203.63l-2.39,18.89c-.1.78-.63,1.1-1.16.94-.46-.13-.8-.63-.68-1.39,1.9-11.8,3.33-23.41,3.58-35.41.02-.79.45-1.22.96-1.2.45.02.95.44.9,1.17l-1.21,16.99Z"/>
            <path class="cls-123" d="M251.19,279.85l-19.32-.3c6.63-1.3,12.99-2.62,19.88-4.79l-.56,5.08Z"/>
            <path class="cls-122" d="M261.89,220.02c-.08.64-.46.85-.67,1.02-.28.24-1.22.03-1.15-.45,1.33-9.25,3.04-18.17,3.5-27.5l.37-1.32c.14-.48,1.41-.5,1.36-.14l-3.42,28.38Z"/>
            <path class="cls-105" d="M268.95,48.29c.29,1.26-.47,2.05-1.6,2.55-5.36,1.46-10.09,4.53-13.6,8.85-.05-.78-.39-1.44-1.16-1.63.85-1.02,1.52-2.42,2.57-3.24,4.05-3.2,8.78-5.34,13.8-6.52Z"/>
            <path class="cls-48" d="M200,239.25c-.79.74-1.28,1.78-2.44,2.41.46-1.15,1.06-2.13,1.96-2.83.12.17.27.29.49.42Z"/>
            <path class="cls-157" d="M240.85,64.51c-.7-.23-.5-1-.44-1.55.39.36.43,1.13.44,1.55Z"/>
            <g>
              <path class="cls-35" d="M344.25,221.15c-1.97,1.32-4.02-.27-5.34-1.85-2.03-3.61-4.71-5.97-8.04-7.11l-8.48-2.35-2.32-1.02c.06,1.59,1.28,2.29,2.54,2.89l11.38,5.43c2.05.98,2.65,3.9,2.74,5.87,1.44,3.93.11,8.06-2.65,2.04-3.9-2.85-8.24-5.02-13.02-6.51l-.95-.16c-.56-.09-.43.25-.36.45.17.46.35.73.73.94l9.74,5.49c1.79,1.01,2.62,2.38,2.89,4.09.36,2.36-.05,3.53-1.23,3.5-3.21-1.65-6.5-3.11-9.88-4.37l-2.88-.97c.19,1.41,1.18,2.05,2.31,2.65l7.08,3.75c1.23.65.77,2.87.53,3.93-.34.56-.79,1.14-1.5,1.23-3.59-1.52-7.23-2.65-10.92-3.39l-2.16,1.09c-6.47,5.6-13.36,9.4-22.27,9.07-3.04.98-6.11,1.61-9.23,1.91-2.1-3.73-2.27-9.68-.39-13.52,5.68-1.62,9.79-4.88,13.62-9.46l15.66-18.76c1.65-1.97,3.61-3.29,6.31-2.82l16.13,2.81c2.01.35,3.15,2.98,4.2,4.54l5.77,8.59c.48.71.25,1.49-.02,2.01Z"/>
              <path class="cls-49" d="M257.1,170.45c-1.45,1.74-2.69,3.83-2.41,6.46l2.25-3.09-.92,4.9c-.28,1.47-1.77,1.61-2.97,1.37-1.11-.22-1.58-.94-2.1-2.15-3.92-9.18-9.52-17.14-16.28-24.58,2.92-1.96,4.92-4.02,6.6-6.67l3.96-6.24c.79-2.37,3.25-3.79,4.49-1.17.82,10.23,2.17,21.01,8.15,29.6l-.76,1.56Z"/>
              <path class="cls-69" d="M282.58,234.23c-.11,4.34-.76,8.73.82,12.84l8.64-2.2c3.82-.33,7.56-.3,11.12-1.82,8.29-3.53,11.27-9.74,15.48-8.2l8.34,3.05c.82.3,1.47.37,2.05-.06-.44,1.98-2.4,3.25-3.89,3.52-2.33.42-4.4.33-5.89-1.73h5.79c-1.42-1.07-3.97-2.31-5.94-2.02l-7.14,5.82c-5.57,4.54-11.42,5.95-18.37,5.99l-11.43,4.08c-3.06-5.87-2.92-18.32.41-19.27Z"/>
              <path class="cls-59" d="M253.59,136.03c.1,4.23,1.05,8.56,2.02,12.67-.83-.4-1.03-1.33-1.95-2.02.54,6.37,6.52,11.94,11.01,16.8-2.76,2.41-5.46,4.45-7.56,6.97.22-.88-.3-1.45-.83-2.23-5.2-7.62-6.99-19.74-7.52-29.39-1.42-.01-2.9.63-3.53,1.63.35-1.73,1.08-3.33,2.06-5.13,2.15,1.17,4.27,1.52,6.3.7Z"/>
              <path class="cls-63" d="M315.79,137.83l6.23,2.27c-1.57,5.99-6.81,11.41-12.78,10.33l.61-3.07c-.05-2.9,2.38-10.23,5.95-9.52Z"/>
              <path class="cls-116" d="M344.25,221.15c-.5.94-1.66,1.32-2.91.9-4.22-1.45-4.98-7.15-8.94-8.27-3.62-1.03-7.06-1.94-10.01-3.93,3.9.39,8.16.8,11.93,2.58l5.04,6.15c1.31,1.59,2.76,2.93,4.89,2.57Z"/>
              <path class="cls-177" d="M336.73,223c1.52,2.56,1.74,6.49-1.36,8.16-.74-2.83-1.47-5.75-3.93-7.03l-10.38-5.6c4.28.72,8.63,2.51,12.64,4.75,1.51.85,1.76,2.85,2.9,4.33.48-1.57.2-3.06.13-4.61Z"/>
              <path class="cls-3" d="M343.94,224.29c2.93,1.24,4.23,4.95,5.34,7.63-4.52-1.31-8.37-4.03-10.4-8.64l5.06,1Z"/>
              <path class="cls-53" d="M333.1,229.35l.49,3.15c.25,1.61-.74,3.83-2.59,3.74-.18-1.3-.46-3.16-1.93-3.93l-7.08-3.84c3.57.47,6.75,2.2,10.58,3.65.44-.92.28-1.94.53-2.78Z"/>
              <path class="cls-125" d="M311.22,138.36c.8.88-1.46,5.07-2.14,5.62-1.06.86-1.56.78-1.41-.74,2.17-3,3.04-7.14.19-7.51.07-1.19,2.04-2.94,3.15-2.15,1.6,1.15.49,3.46.21,4.78Z"/>
              <path class="cls-96" d="M313.03,137.79l.22.71c-1.55,2.85-3.07,5.64-4.57,8.38.11.09.07.24.08.32l-.51,1.55c.11.19-.12.97-.43,1.01-1.69-1.01-2.8-2.54-3.12-4.38,1.23-.67,2.32-1.25,2.96-2.14.81,1.42,2.8-1.34,3.55-4.89.29.83.91.15.65-.22,1.25-2.03,1.33-4.09.07-6.17,1.72-.95,3.22-1.34,5.18-.55-1.95,2.21-2.89,4.31-4.09,6.38Z"/>
              <path class="cls-168" d="M322.23,136.64c-2-.19-3.94-.93-6.18-1.71l2.26-3.41c2.09.51,3.84,1.8,3.92,5.12Z"/>
              <path class="cls-139" d="M315.79,137.83c-1.38-.24-1.87.54-2.48,1.65-1.46,2.67-2.91,5.06-3.47,7.87-.03-.53.12-1.16-.35-1.63-.27.65-.43.97-.8,1.15.74-3.28,2.68-6.22,4.35-9.09,1.17-.54,1.81-.3,2.76.05Z"/>
              <path class="cls-139" d="M308.26,148.75c-.09-.57,0-1.22.51-1.55.08.58-.03,1.17-.51,1.55Z"/>
              <g>
                <path class="cls-58" d="M305.95,153.68c-3.54,2.92-8.47-.36-11.58-2.45.35,1.15.52,2.15.51,3,1.81.6,2.63,1.49,2.46,2.69,1.19.64,2.47.9,4.09,1.24-7.46,8.09-15.45,16.9-25.9,10.93-7.6-4.34-13.94-10.66-18.86-17.94-.62-.91-.85-1.6-1.05-2.45-1.79-2.69-3.21-7.89-2.93-11.11.05-.61.5-1.12.91-1.56.4-.29,1-.64.83-1.6-2.46.77-4.85.29-6.94-1.24-4.96-3.62-7.26-9.34-6.8-15.52.31-4.28,2.36-8.25,6.18-10.1,4.68-2.27,9.47-.25,11.55,4.41,3.05,6.84,1.4,14.3,6.91,17.25l3.14-7.34,9.32,5.22c-1.58,3.37-2.21,6.99-1.3,10.58,1.73,6.86,8.9,10.12,15.24,7.27,3.95-1.78,6.11-5.03,8.03-8.86.73-1.08,3.56-.37,4.22.73-2.66,5.04-2.17,10.48,2.04,14.18,1.07.94.19,2.01-.05,2.68Z"/>
                <g>
                  <path class="cls-21" d="M305.95,153.68c-1.28,3.5-5.36,2.24-8.62,3.24-1.08-.58-1.61-1.89-2.46-2.69-.03-.9-.2-1.9-.51-3,.1-.21-.11-.5.39-.67.15-.05,4.53,4.25,11.2,3.13Z"/>
                  <path class="cls-8" d="M252.07,129.11c-3.17-1.7-2.27-6.54.37-8.41-.12-.83.32-1.37,1.32-1.64.2-.46.21-.98.01-1.54l-1.18-.55c-.81-2.48-3.2-4.44-5.58-2.4l-2.4,3.21c-.99-1.76.23-3.96,1.34-5.17,1.41-1.54,3.62-2.1,5.48-1.02,3.65,2.12,5.12,6.68,4.47,10.63-1.36.17-2.31.58-2.75,1.2-.52.72-.75,1.67-.52,2.6l.83,3.4-1.4-.32Z"/>
                  <path class="cls-73" d="M253.78,117.52c.74,2.49-2.19,3.28-3.94,2.12.01-.93-.27-1.96-.9-2.45-.7-.55-1.67-.73-2.53-.3l-1.79.9c-.07-2.51,2.18-5.47,5.03-5,2.34.39,3.71,2.84,4.13,4.73Z"/>
                  <path class="cls-104" d="M252.07,129.11c-2.33-.54-4.17-1.84-4.1-4.51.05-1.94.46-3.75,1.87-4.96.83-.72,2.42-.59,3.68-.51.25-.66.21-1.12.26-1.6.08.37.59.77.36,1.36-.13.32-.55.69-.84,1.07.15.13.9.7.76.9s-.77.45-1.06.66c-2.54,1.85-2.23,5.15-.93,7.6Z"/>
                  <path class="cls-93" d="M282.52,153.59c2.33,4.2,6.63,5.78,11.08,7.26-5.4,1.11-11.03-3.11-13.19-8.05.83-.87,1.61-.12,2.11.79Z"/>
                  <path class="cls-97" d="M294.87,154.23c-.86-.81-.9-2.18-.51-3,1.08,2.42,1.64,2.22,4.06,3.08.04.3.02.56-.03.73l-3.53-.81Z"/>
                </g>
              </g>
              <g>
                <path class="cls-58" d="M300.89,109.76c-.69-.11-1.08-.9-1.49-1.36-.61-.65-.77-.99.02-1.34l9.9,3.52c2.07-.03,3.58.53,4.53,1.67-.72,2.71-2.29,5.22-4.53,6.92.04.26.11.49.26.64,1.36,1.29,9.21-.2,10.84-1.45.8-.27,1.05.36.76,1.89-.32,1.83-.36,3.69-1.36,5.4-.6-2.09-2.55-3.11-4.36-2.24-1.62.79-2.93,2.29-3.32,4.03,2.18-.63,4.35-.83,5.77,1.23-5.33-.66-9.33,1.81-12.48,5.57-1.64-1.03-3.22-1.36-4.95-1.3.93-5.5-1.44-11.01-6.55-13.19s-10.42.09-14.11,4.04l-9.7-4.95c.23-1.41.76-2.29,1.23-3.12,1.38-1.01,2.98-1.79,4.81-2.36,3.38-2.08,6.22-4.85,8.51-8.32,2.37.98,4.65,2.19,6.85,3.61,2.42,1.21,5.46,2.36,8.2,2.14.99-.08,1.45-.41,1.16-1.02Z"/>
                <path class="cls-159" d="M300.89,109.76c.45.07.71.56.44.92-5.45,2.04-11.56-1.63-16.44-4.89-3.19,5.33-7.79,9.3-13.53,9.93.08-1.49,1.24-1.87,2.6-2.35,5.39-1.92,8.84-6.49,10.82-12.17,3.56,5.13,8.93,8.5,15.11,9.28.59.07,1-.41,1.01-.72Z"/>
                <path class="cls-7" d="M313.85,112.26c-4.76-.66-9.43-1.55-13.7-4.21-.32-.31-.8-.23-.76.36-1.38-1.54-2.73-3.27-3.33-5.75,5.24,4.44,11.07,7.7,18.14,7.37.42.84-.17,1.53-.35,2.23Z"/>
                <path class="cls-143" d="M321.18,120.26c-.08-.26.02-.6-.25-1.12-5.54,2.75-13.24,1.67-12.16.3.11-.14.37-.19.56-.26,4.1,1.18,8.78.08,12.2-2.99.57,1.59-.13,2.86-.34,4.07Z"/>
                <path class="cls-112" d="M301.81,122.03c-5.37-4.74-11.98-5.63-18.97-4.54,5.53-6.02,15.07-5.58,20.41-.2,1.23,1.24-.16,3.89-1.44,4.73Z"/>
              </g>
              <g>
                <path class="cls-170" d="M290.76,142.72c-2.67,1.45-5.55,1.08-7.99-.16-2.07-1.05-3.74-3.32-4.14-6.14-.81-5.67,2-11.54,7.15-14.03,2.83-1.36,6.01-1.32,8.59.43,2.15,1.46,3.77,4.03,3.76,7.22-.02,5.14-2.65,10.11-7.37,12.67Z"/>
                <path class="cls-74" d="M294.5,131.48c-.06,1.65-.91,2.8-1.98,4.06-.41,0-.72-.15-.9-.5,2.93-9.77-6.68-3.28-5.55,2.59l-.88.8c-3.33-1.44-4.74-5.02-3.56-8.41,3.33-6.32,14.63-8.31,12.88,1.45Z"/>
                <path class="cls-19" d="M292.52,135.54l-2.42,2.83c-.72.84-1.67,1.05-2.7,1.19-.94.12-1.47-.8-2.21-1.12-.62-3.55.91-7.24,4.2-9.07.92-.51,2.11-.47,2.88.13.56.43,1.23,1.52,1.02,2.49l-.76,3.55Z"/>
                <path class="cls-166" d="M294.5,131.48c.05-1.34.21-2.64-.66-3.98-1.94-3-6.44-2.84-10.32.89l-1.9,1.64c1.11-3.2,4.19-5.74,7.93-6.06,2.24-.19,4.17.71,5.11,2.63.7,1.44,1.06,3.55-.16,4.88Z"/>
              </g>
            </g>
          </g>
          <g>
            <path class="cls-107" d="M468.97,155.6l-36.04-.1c-4.24-.01-7.66-3.89-7.65-7.94l.03-28.23c0-3.74,3.64-7.6,7.54-7.59l36.47.09c4.22.01,7.02,4.43,7.02,8.29v27.12c0,4.35-2.86,7.56-7.36,8.36Z"/>
            <path class="cls-39" d="M473.73,147.52c0,3.22-2.46,5.54-5.46,5.55l-35.35.05c-2.78-.38-5.03-2.46-5.03-5.41v-28.01c0-3.32,2.8-5.59,5.98-5.59l33.97.02c3.17,0,5.44,1.95,5.93,5.12l-.04,28.27Z"/>
            <g>
              <path class="cls-95" d="M452.98,147.17c-.48,1.02-3.74,1.07-4.38.15-.46-1.66-.27-3.23-1.98-3.81-1.56-.53-2.59-.2-3.97,1.55-1.26-.63-3.16-2.24-3.27-3.54.91-1.42,1.87-2.29,1.31-3.73-.63-1.63-1.71-2.31-3.92-1.92-.56-1.6-.51-3.35-.1-5.01,2.14.29,3.29-.43,3.93-1.79.77-1.65-.21-2.77-1.08-4.26-.27-1.06,2.27-3.35,3.31-2.83,1.35.68,2.02,2.03,3.36,1.42,3.34-1.52,1.64-3.96,2.95-4.48.7-.28,2.79-.26,3.45.02,1.34.56-.43,3.11,2.93,4.46,1.43.58,2.15-.58,3.62-1.31,1.04-.52,3.66,2.08,3.01,3.05-1.06,1.55-1.83,2.29-1.3,3.72.63,1.74,1.84,1.91,3.64,2.26,1.15.25,1.14,3.93.04,4.34-1.62.52-2.96.43-3.62,2.21-.49,1.33-.12,2.51,1.47,3.93-.49,1.15-1.99,3.18-3.32,3.27-1.34-.79-2.27-1.91-3.63-1.54-1.79.5-2.03,1.73-2.46,3.84Z"/>
              <circle class="cls-57" cx="450.83" cy="133.32" r="6.19"/>
            </g>
          </g>
          <g>
            <path class="cls-54" d="M369.52,261.16l48.39-79.03c.43-.69.45-1.21.21-1.62-.18-.3-.83-.46-1.59-.35l-70.77,9.47-9.53,15.1-2.39-1.03,9.37-14.6c1.21-1.88,2.8-2.57,5.1-2.89l75.07-10.29c.97-.13,1.52.78,1.64,1.28.15.65.3,1.63-.2,2.47l-48.98,81.27c-1.61,2.68-4.38,4.66-7.51,4.62l-75.21-1.17,7.78-13.65,4.51-1-6.17,10.58,70.28.85Z"/>
            <path class="cls-16" d="M449.01,279.78l-161.14-.06c-.44-.85-.4-3.9.89-3.92l159.77-1.64c.93,1.85.87,3.64.48,5.62Z"/>
            <path class="cls-109" d="M372.01,270.24l-73.46-2.02c-1.6-.04-2.99-.47-3.63-1.87l72.41,1.1c3.66.06,7.47-1.17,9.49-4.49l48.9-80.92,1.59-3.57c2.82,2.43,2.64,5.29.97,8.09l-36.87,61.49-10.44,17.21c-1.84,3.03-4.87,5.1-8.97,4.98Z"/>
            <path class="cls-84" d="M420.06,272.45l-15.88-41.8,2.29-3.64,17.64,45.27c-1.27.44-2.28.42-4.05.17Z"/>
            <path class="cls-140" d="M355.2,273.27l-45.42.43c.19-1.21.76-2.22,1.64-3.3l44.17,1.25c.47.01.54,1.61-.39,1.62Z"/>
            <path class="cls-137" d="M324.68,201.95l-7.87-.63-9.81-10.61c-.65-.96,1.52-3.07,2.77-3.26l14.91,14.5Z"/>
            <path class="cls-148" d="M308.19,185.97c-.78.63-1.76,2.04-2.68,2.88-1.19,0-2.73-2.68-1.91-3.94,1.05-1.61,3.36-1.02,4.59,1.07Z"/>
            <g>
              <path class="cls-71" d="M337.9,232.48l.45.88,1.3-4.22c-.34-.12-.34-.7.3-.81,1.34,1.39,2.54,2.97,4.29,3.62l.97.89c1.42,11.24,15.28,3.08,20.3-1.27,1.74-1.51,9.34-9.43,8.61-10.78-.29-.53-11.59.56-12.09.91-.18.12-2.31,3.5-2.21,3.69,6.25-.94,6.87,1.3,2.11,5.03-7.82,6.12-14.31,1.03-9.18-7.83,2.96-5.11,11.78-13.95,17.2-7.71.36.14,6.56-3.32,6.74-3.66.62-1.23-2.79-3.64-4.19-3.8-9.37-1.07-19.91,8.2-23.98,16.11l-1.34.5-1.17-.94c-.64-.52,1.49-2.41.19-4.42l-6.2-9.53-2.25-3.31,9.16-14.44,68.67-9.13-47.01,76.86-66.18-.57,6.57-10.72c3.3-1.53,5.77-4.52,8.73-6.49,2.19,1.6,4.82,2.76,7.95,2.03,2.41-.56,4.09-2.14,5.55-4.91,5.04-2.1,3.26-5.8,6.74-5.96Z"/>
              <path class="cls-95" d="M344.23,231.95c2.49.93,4.81,2.4,7.94,2.94-.64-4.22-2.96-7.78-5.02-10.88,4.1-8.73,14.02-17.22,23.61-17.69,3.59-.18,6.64,1.79,7.04,5.66l-8.31,4.22c-.76-1.63-2.01-2.98-4.15-2.57-9.01,1.73-16.18,14.47-12.76,17.62,2.65,2.44,9.37-.71,11.87-5.12l-6.47.33,3.55-5.87,14.83-.94c-4.06,6.96-9.28,12.93-16.16,16.9-4.87,2.82-11.23,4.27-14.38.94-1.37-1.44-1.7-3.54-1.6-5.55Z"/>
              <path class="cls-95" d="M337.9,232.48l1.75-3.35c-.15,4.16-1.95,8.49.93,12.88,3.58,5.45,14.87,2.88,19.76-.36l9.14-6.06-6.52,9.19c-4.43,3.89-10.9,5.42-16.66,5.86-6.22.47-10.76-4.36-10.43-10.34.16-2.86.83-5.52,2.03-7.83Z"/>
              <path class="cls-95" d="M379.19,224.24c3.85-7.49,7-19.14.51-22.82-3.29-1.87-7.18-1.39-10.78-.42-7.51,2.34-13.57,6.81-19.3,12.31l8.06-11.34c4.49-2.83,9.24-5.15,14.43-6.62,7.15-2.02,14.51-.96,16.11,5.91,1.78,7.64-3.42,17.1-9.03,22.99Z"/>
            </g>
            <g>
              <path class="cls-23" d="M357.94,271.78l14.8.38c3.91-.03,7.2-2.08,9.44-5.24l10.97-17.91,8.17,23.81-43.36.43c-.52,0-.44-1.46-.01-1.45Z"/>
              <polygon class="cls-70" points="381.69 270.93 383.83 268.1 392.59 253.75 398.52 270.86 381.69 270.93"/>
            </g>
          </g>
        </g>
      </g>
    </g>
  </g>
</svg>
